<?xml version="1.0" encoding="utf-8"?>
<!-- Generator: Adobe Illustrator 19.2.1, SVG Export Plug-In . SVG Version: 6.00 Build 0)  -->
<svg version="1.1" id="Layer_1" xmlns="http://www.w3.org/2000/svg" xmlns:xlink="http://www.w3.org/1999/xlink" x="0px" y="0px"
	 viewBox="0 0 688.2 248.6" style="enable-background:new 0 0 688.2 248.6;" xml:space="preserve">
<path d="M8.2,154.1c0.8-9.9-3.5-18-3.4-27.5c0-10,6.5-10.7,8.4-18.2c1.6-6.6-5.2-12.6-1.1-20c1.7-3,5.5-6.3,8.1-8.8
	c6-5.8,12.8-12.3,19.9-16.6c7-4.2,16.1-4,22.9-7.7s5.6-10.2,10.3-16c10.5-13,16.9-1.8,15.8,10c9.2-9.1,14.2-16.8,18,0.6
	c9.9-12.2,9.1-24.1,27.5-13.6c3.3-7,11.9-16.4,20.7-10.2c7.9,5.6,0.5,15.4-4.2,21c5.8,0.8,8.9-1.4,13.5-1.5c4.9-0.1,4.7,1.1,8.1,1.7
	c5.6,1,19.6,1.4,20.2,10.9c0.6,9.4-10.9,11.5-13.2,18c-2.4,7,6.6,12.5,11.4,14.9c6.6,3.3,14.1,3.5,13.9,12.2
	c-0.3,8.7-6.8,12.5-2.6,20.6c1.4,2.7,5.3,2.3,5.8,6.2c0.5,3.7-5.6,10.4-7.2,13.1c-5.9,10-9.3,16.5-21.2,20.6
	c9.9,6.3,11.9,10.1,8.9,20.9c-1.1,4-2.3,9.7-4.5,13.6c-1.2,2.1-9.1,10-9,11c9.9,0.8,17.8,2.5,26.5-2.9c8.8-5.5,6.9-12.8,13.9-19.7
	c7.5-7.4,14.6-8.4,18.2-19.6c2.9-8.9,1.9-18,2.5-27.2c1.3-18,3.1-36,4.3-54.1c1.5-21.6,6.3-33.2,23.7-46.2
	c26.7-19.9,55.2-17.8,85.5-23.2c3.7-0.7,6.7-0.9,10.5-3c5.5-3.2,5.3-8.6,9.4-11.4c5-3.3,20.5-0.9,26.1-0.3c2.2,0.2,4.7,1,7,1.7
	C408,5,407,5,410.5,8c1.9,1.6,3.9,5.3,7,7.5c4,2.8,7.5,4.3,11.1,6.9c4.1,2.9,9.3,6,14.4,8.8c4.1,2.3,13.1,4.6,16.5,7
	c7.4,5.2,5.4,21.9-4,23.3c-8.3,1.2-3.5-3.2-5.7-10.2c-1-3.2-8.1-12.8-12.1-11c-5.3,2.4,1.9,5.5,0.5,9c-2.5,6.6-10.8,2.9-16,1.7
	c-14.7-3.5-24.1,0.2-39.1-1.2c-12.5-1.2-23.4-4.2-34.7,3.6c-5.1,3.5-6.9,10.6-15,13.6c-2.4,0.9-5.4-0.9-7,0c-3.9,2-7.5,5.8-10.8,9.2
	c-6.4,6.5-25.5,23.4-22.3,34.3c2,7.1,12.5,2.1,8.8,13.5c-1.1,3.4-4.1,4.2-5.6,7.1c-3.4,6.6-1.5,9.1-3,15.7
	c-3.2,13.9-20.2,16.8-24.7,31.2c-5.3,17.3,8.7,26.9,24.6,30.5c-0.3,0.8-0.5,1.5-0.8,2.3c7.2-2.6,16.1,0.4,23-0.4
	c7.6-0.9,15.4-2.9,23.5-2c22.2,2.6,34-7.4,44.8-26.9c5.3-9.6,1-18.5,4.9-28.2c2.4-5.8,10.2-13.8,12.9-5.3c2.1,6.8-7.4,14.1-5,22.1
	c1.2,3.9,8.5,12.5,11,17.5c6.4-7.2,8.6-8.9,9.8-18.3c0.3-2.5-0.8-14.6,0.2-17c2.3-5.5,2.6-4.7,7.5-4c0.6,0.1,10,6.1,10.5,6.9
	c4.5,8.6-5.9,21.5-8.9,29.4c-3.8,9.9-8.5,16.6-15.2,25.1c5,7.4,35.6-1.1,42.7-4.4c6.7-3.1,12.4-8.9,19.1-12.4
	c6.4-3.4,12.8-4.6,19.4-7.4c13.6-5.7,26.9-8,40.9-12.5c13.4-4.3,13.7-22,24-32.5c6-6.2,8.8-5.8,7.9-12.8c-0.4-3.2-4.6-8.1-5.6-11.4
	c-5.2-17,1.5-27.2,9.8-41.1c2.6-4.3,8.3-14.3,5.9-19.8c-2.4-5.4-11.6-2.3-17.2-2.1c-7.8,0.2-14.9,0.1-22.5-2.3
	c-5.6-1.8-18.8-3.1-23.2-6.4c-6.6-5-0.7-11.6-4.2-15.7c-2.4-2.8-10.8-0.6-8.4-6.4c0.9-2.3,13.2-3.9,16.4-5.6
	c7.3-3.7,7.8-6.2,16.9-6.3c2.7,0,6.2,0.1,8.2,0.3c4.8,0.5,8.5,2.8,12.7,3.5c15.2,2.5,28.4-2.9,42.2-5.8c12.3-2.7,26-3,38.8-3.5
	c12.5-0.5,34.9,0.6,46,6.7c7.9,4.3,8.5,16.5,3.8,24.4c-3,5.1-15,12.3-21.4,15.7c-13,6.9-24.3,0.1-36.3-4.7
	c-2.3-0.9-16.1-5.7-18.1-2.7c-2.6,3.9,3.9,11.9,5.1,15.1c9.3,23.7-21,31.2-22,52.9c-0.7,16.3,24.9,34.1,16.6,48.6
	c-3.3,5.7-12.3,10.4-15.8,16.6c-6.7,11.8,6,22.1-10.7,28.1c-9.6,3.4-24.9,7.7-35.3,4.3c-2.4-0.8-13.7-3.9-14.8-5.9
	c-4.8-8.5,4-4.9,7.1-7.9c2.2-2.1,10.7-12.3,4.8-16.4c-2.6-1.8-14.9,1.6-18.2,2.2c-13.5,2.7-26.5,8-39.5,12.2
	c-19.9,6.5-33.1,20.3-54.7,22.6c-10.5,1.1-24.1-2.5-34.5,0.6c-6.9,2-11.6,8-18.7,9.9c-8.9,2.4-19.1,1.5-28.1,1.9
	c-16,0.7-27.8-0.6-43.4-5.2c-7.4-2.2-17-0.1-23.9-3.1c-5.1-2.2-12.2-9.5-16.8-12.5c-15.6-10.1-23.6-13-20.7-32.6
	c2.6-17.8,10.7-19.8,21.8-32.6c6.1-7,15.3-23.6,15-33.2c-0.1-2.6-2.6-5.9-2.9-8.8c-0.4-4.1,1.3-10.5,1.3-14.8
	c0.1-8.5-0.8-15,3.5-22.6c2.7-4.8,5.5-8.7,10.4-11.5c9.3-5.4,10.9-0.3,20.5,0.2c8,0.4,6.9-2.4,8.4-5.6c-0.2,0.4,1.4-9.5,1.5-9.6
	c1.4-4.9,3.8-9,4.6-14.2c-7,2.9-13.9,2.7-21.5,4.2c-12.2,2.4-21.5,6.1-31.5,12.8C258.1,53,249,63,248.2,85.9
	c-0.4,12.4-2.7,23.8-3,33.7c-0.5,14.2,0.6,31.6-3.5,45.1c-1.7,5.6-2.3,11.2-5.8,16.7c-4.5,6.9-13.5,6.9-17.6,13.7
	c-5.1,8.4-0.2,9.9-9.9,15.6c-9,5.3-13.7,7.3-24,6.7c-9.5-0.6-12.9-1.3-20.1,4.2c-6.1,4.7-11.6,10.7-18.8,14.6
	c-20.8,11.4-42.5,12.9-65.5,12.2c-27.5-0.9-54.2-9.2-73.3-30.2c-9.8-10.7-6.5-16.6-4.6-29C3.5,178.2-0.9,162.2,8.2,154.1
	C8.5,151.3,6.9,155.3,8.2,154.1z M34.1,141c-3.2,6.5-11,14.9-5.3,20.5c2.8,2.8,10.4,3.4,14,6.1c5.3,4,9.8,10.5,8.5,17.3
	c-1,5.3-11.6,11.3-10.8,15.6c-3.2-0.8-7-2.8-10.3-2.4c0.4-1.7,15.9,17.2,18.1,19c10.7,9.2,11.5,0.9,16.7-5.4
	c5.2-6.3,20-12.2,27.8-8.3c3.8,1.9,3.6,5.7,6.9,7.2c3.9,1.7,9.1,0.4,13.1,0.8c13.5,1.5,29.1,10,41.5-1.8c5.6-5.4,7-18.6,10-25.7
	c8.7-21-5.7-2.1-11.9-12.8c0.5-0.5,6.8-6.7,7-4.7c-0.4-4.1-1.6-6-0.8-10.8c1-6,3.6-8.3,1.3-14.5c-4.6-12.6-23.8-18.7-26.7-32.3
	c-1.1-5.1,2.6-9.4,1.5-13.6c-1.7-6.1-7.2-5.3-4.4-14.4c4.4-14.4,17.9-19.2,30.7-15.8c-1.5-13.9-17.5-4.4-24.4-1.7
	c-3.8,1.5-6.3,1.8-7.9,2.7c-2.4,1.3-4.7,6.8-8,6.3c0.1-0.8,0.2-1.5,0.3-2.3c-8-0.9-11.9,6.6-20.7,3.3c-8.7-3.3-8-9.9-16.1-4.6
	C78.3,72.5,73.7,86.9,68,92.5c-3.4,3.4-18,12.6-17.3,17.1c2,13.7,30.9-3.1,22.6,23.2C70,143.4,62.8,148,51.4,148.6
	c-3.7,0.2-7.4,0.2-10.9-1.5C37.4,145.7,39.1,140.6,34.1,141C33.2,142.9,36.7,140.8,34.1,141z M165.2,129c2.7,7.2,5.7,14.6,9.6,21.1
	c2.9,4.7-1.3,9,8.1,6.1c4.7-1.4,13.5-13.5,15.3-18.1c3.3-8.5-0.6-5.4-3.3-11.7c-3.8-8.9,9.9-33.5-9.7-30.6c-5.3,0.8-8.9,7.7-12,13
	C170.3,113.8,169.5,125.5,165.2,129C166.4,132.2,168.5,126.3,165.2,129z M159.7,128.3c1.4-9.1,1.3-16.3,6.4-23.8
	c6.6-9.8,14.5-20.3-3.7-17.6c-9.2,1.4-23.7,10.4-21.5,21.5C142.3,114.8,155.1,124.2,159.7,128.3
	C160.2,125.5,156.6,125.5,159.7,128.3z M603.9,155.4c-4.8-8.8-3.5-7.4-10.1-1.2c-4.3,4.1-8,9-12.2,13.2c-8,8.2-17.5,12.5-16.3,24.3
	c0.2,1.7,2.4,11.9,3.5,12.6c1.1,0.6,16.4-5.3,17.2-7.7c1.8-5.8-6.3-9.7-2.9-17.7C586.9,170.3,598,162.8,603.9,155.4
	C602.5,152.8,601.5,158.4,603.9,155.4z M596.4,41.6c-4,0.4-7.2-0.1-9.8,3.5c-3.8,5.2,3.6,13.6,2.7,18.1c-0.9,4.7-17.7,19-7,24
	c5.1,2.4,15.5-8.3,18.1-11.6C614,58.5,592.1,56.3,596.4,41.6C594,41.8,596,43,596.4,41.6z M52.6,63.9c-6.8,8.3-52.2,25.9-28.7,42.3
	c12.3,8.6,16.2-0.5,16.5-11.5c0.3-12.3,3.4-20.9,14.3-29.7C53.9,64.7,53.3,64.3,52.6,63.9C52.1,64.5,53.2,64.3,52.6,63.9z
	 M638.9,47.1c8.5,0.5,16,0.2,24-3.3c2-0.9,14.7-6.6,15-9.2c1.3-12.3-47.7-1.2-54,1.9C626.4,38,639,43.1,638.9,47.1
	C642.2,47.3,639,43.7,638.9,47.1z M423.5,33.1c0.9,0.3,1.7,0.5,2.6,0.8c1.4-10.7-20-15-27.1-15.9c-6.2-0.8-29-5-23.1,6.1
	C379.7,31.1,420.3,35.4,423.5,33.1C424.3,33.4,422.8,33.6,423.5,33.1z M385.5,188.3c0.2,4.2-5.4,10.4-8,13.7
	c-6.6,8.7-10.2,10.8-20.5,13.6c0.4,3.1,19.3-0.1,23-1.3c9.1-3,14-8.9,17-17.9c1.4-4,4.2-14.8-2.2-16.6
	C389.6,178.3,392.7,191.5,385.5,188.3C385.6,190.7,386.3,188.7,385.5,188.3z M39.3,120.8c-2.1,8.4-3.9,12.2,3.6,17.3
	c5.3,3.6,14.2,4.8,19.7-0.9c6-6.2,5.2-15.1-2.5-16.3c-3.7-0.6-2.9,0.7-5.9,0.8C51,122,44.7,121.6,39.3,120.8
	C38.7,123.4,43.6,121.5,39.3,120.8z M43.8,182c0.9-6.8-8.3-13.2-14.4-13.3c-9.1-0.1-2.5-2.4-7.3,5.4c-1.6,2.5-4.4,10.3-4.2,12.8
	c0.6,9.6,1.3,4.2,8.9,3.8C33.1,190.4,43.9,192.4,43.8,182C44.4,177.5,43.9,185.4,43.8,182z M56.2,227.4c-8.9-2.2-14.6-5.1-22.7-9.3
	c-3.9-2-22.6-12.8-18.1,0.4c0.9,2.7,18.3,12,21.3,13.2C44.9,234.8,51.7,235.9,56.2,227.4C54.4,227,55.1,229.3,56.2,227.4z
	 M76.8,67.8c-1.1-11.5-18.5,6.4-20.2,9.3c-3.4,5.9-7.2,14.7-7.4,21.6c1.4,0.5,13.2-10.3,14.3-11.4C69.2,81.5,71.8,73.9,76.8,67.8
	C76.6,65.9,72.3,73.3,76.8,67.8z M591.1,21.8c-0.6-1.6-8.1,8.2-5.1,11.9c2.7,3.3,20.5-0.9,23.7-2.5c8.7-4.4,8.7-5.7,2.8-10
	C605.3,15.9,599,19.7,591.1,21.8C590.9,21.5,593.7,21.1,591.1,21.8z M22.9,122.4c-0.7,0.2,1.2-12-7.4-4.4c-6.4,5.6-1.9,14-0.5,20.5
	c1.4,6.7-1.6,15.7,5.1,12.8c2-0.9,7.3-13.1,7.4-14.9C27.7,132.3,24.2,126.1,22.9,122.4C23.3,122.2,23.9,125.4,22.9,122.4z
	 M374.2,41.9c0.6,3.5,25.8,0,29.4-0.1c8.7-0.1,18.9,3.8,27,2.6c-4.7-11.2-40.9-10.3-51.8-11.7C378,35.9,374.1,41.4,374.2,41.9z
	 M570.4,33.6c-3.6-1.9-9.2-10.5-11-11c-6.1-1.7-9.4,8.5-11.6,12.4c-3.7,6.4-8.2,11.5,3.7,11.1C560.2,45.8,563.5,38.7,570.4,33.6
	C569.5,33.2,567.6,35.6,570.4,33.6z M98.6,223.3c-6.1-0.1-34.9-1.8-28.3,11.8c2,4,12.4,2.8,16.4,1.4
	C95.2,233.7,94.8,231.5,98.6,223.3C97.2,223.2,97.7,225.4,98.6,223.3z M320.2,61.3c-7.7,2.4-19.5,3.6-24.7,10.1
	c-3.5,4.4-8.6,21.9-5.6,27c5.1-5.4,6.9-13.9,12.1-19.8C306.9,73.1,317.4,67.4,320.2,61.3C313.2,63.4,319.7,62.4,320.2,61.3z
	 M542.9,28.9c-5.8-0.6-34.3-2.3-25.9,9c1,1.3,15.3,5.8,17.1,5C536,42,540.2,31.7,542.9,28.9C541.5,28.7,542,29.8,542.9,28.9z
	 M558.9,205.2c4.7-5.4-1.2-9.6-1.3-15.1c-0.1-5.1,2.5-8.2,2.7-12.9c-7.2,0-13.4,10.8-12.6,17.3C548.3,199.2,554,201.1,558.9,205.2
	C561.2,202.6,558.5,204.8,558.9,205.2z M586.4,138.6c-7.2,1.6-12.5-5.4-12.2,4.2c0.2,6.6,5.1,9.7,5.3,17.2
	C588.1,156.2,591,144.6,586.4,138.6C585.1,138.9,587.8,140.3,586.4,138.6z M69.6,219.9c4.3,0.1,24-0.3,26.1-2.3
	c-2.4-3.3-8.3-6.9-7.1-9.9C84.1,208.6,67.3,213.1,69.6,219.9C70.9,220,68.4,216.5,69.6,219.9z M174.2,69.5
	c9.5-4.7,18.8-14.6,2.7-15.5c-4.4-0.2-2.8-4.5-6.8,1.3C167.1,59.8,172.2,66,174.2,69.5C175.3,69,172.7,67,174.2,69.5z M136.5,86
	c-0.3,8.1,21.4-10.7,20.8-12.8C153.3,59.4,138.1,83.3,136.5,86C136.4,89.2,137.8,83.9,136.5,86z M105.3,70.8
	c1.1-1.4,6.6-2.4,8.4-3.3c7.5-3.3,14.4-7.7,21.5-11.8c-9.2-0.2-12,2.9-20.1,6.4c-7.9,3.4-10.7,0.7-18.4,0.6
	C99.5,65.3,102.3,67.9,105.3,70.8C106.5,69.2,102.3,67.9,105.3,70.8z M260.3,159.9c-5.1-1.5-6.9,12.5-7.3,15.4
	c-1.9,11.8-1.7,15.5,8.2,22.2c-0.2,0.3-4.6-11.3-4.7-13.2C255.8,176.5,258.7,167.5,260.3,159.9C260,159.8,259.7,162.8,260.3,159.9z
	 M620.9,17.2c4.8,7.6,3.3,7,11.5,4.1c4.7-1.7,10.9-5.2,14.3-8.7C644.9,12.6,619.5,14.9,620.9,17.2C622,19.1,620.1,16,620.9,17.2z
	 M647.6,22.4c0.4,1.3,25.5,1.9,29.2,1.9C674.5,12,654.4,18.3,647.6,22.4C647.7,22.7,649.1,21.5,647.6,22.4z M575.7,86.4
	c-10,0.4-8.9,32.1-5.5,31.9C572.5,118.1,575.1,89.7,575.7,86.4C574.3,86.4,574.8,91.7,575.7,86.4z M126.7,224.2
	c-1.6-7.6-24.7-2.1-25.4,7.9C109.3,231.9,119.2,226.9,126.7,224.2C126.6,224,122.7,225.6,126.7,224.2z M349.5,44.4
	c3.3,4,15.2-2.8,13-8.7C358,23,351.2,40,349.5,44.4C349.7,44.7,350.8,40.9,349.5,44.4z M285.2,142.3c-8.1,2.6-14.6,9.6-16.9,17.7
	C275.3,156.8,286.7,151.8,285.2,142.3C277.2,144.9,286.1,147.8,285.2,142.3z M151,30.7c-4.8,0.9-17.9,14.2-6.8,13.2
	C147.7,43.6,156.8,30.8,151,30.7C150.7,30.7,152.6,30.7,151,30.7z M179.4,186.2c-10.5-2.5-10,3.6-11.4,12.9
	C173.9,196.4,175.4,190.5,179.4,186.2C177.9,185.8,175.4,190.5,179.4,186.2z M591.7,92.7c-5.9-1.7-13.1,20.5-5.6,25
	C586.9,108.5,588.4,101.4,591.7,92.7C590.4,92.3,590.1,96.8,591.7,92.7z M309.1,216.5c5.1,0.1,23.3-2.8,26,1.7
	C338.1,210.7,308.4,213.5,309.1,216.5C311.1,216.5,308.8,215.3,309.1,216.5z M332.3,41.2c1.3,1.5,10.8-15.2,11.1-16.9
	C335.8,23.1,333.9,36.4,332.3,41.2C332.4,41.4,333.7,37.1,332.3,41.2z M395,7c-2.7-0.8-20.4-2.6-20.7,2.8c3.8-0.7,17.3,2.7,19.5-1
	C395.2,12.6,397.1,10.8,395,7C394.2,6.7,395.7,8.2,395,7z M178.5,171c0.1-0.4-4.6,17.1,3.6,9.7C184.7,178.2,183.1,169.8,178.5,171
	C177.8,172.7,181.4,170.2,178.5,171z M562.7,153.9c-2.5-3.3-10.3,11.5-11.7,13.7C555.6,169.9,562,156.3,562.7,153.9
	C562.5,153.6,561.3,158.4,562.7,153.9z M350.7,222.7c-5.2-2.2-16.8-1.6-19.5,0.8C337.8,224.5,344.1,224.9,350.7,222.7z M569,26
	c0.5,0.2,15.1,7.2,9.6-1.9C577.4,22.1,568.1,22.5,569,26C571.3,27.1,568.4,23.5,569,26z M121.2,47.3
	C134.4,43.2,117.2,30.9,121.2,47.3C122.1,47,121,46.1,121.2,47.3z M33.4,210.5c0-2.8-9.2-8-11.7-7.6C23,206.9,29.5,210.4,33.4,210.5
	C33.4,210.3,32.6,210.5,33.4,210.5z M171.4,163c-0.3-2-3.3-7.5-5.6-7.5c-0.2,0-2.5,5.4-1.3,6.4C162.9,160.7,176.9,164.8,171.4,163
	C171.3,162.4,169.8,162.5,171.4,163z M425.1,170.2c0.8-1,5.4-12.5,2.4-11.8C424.2,159,423.5,168.7,425.1,170.2
	C425.7,169.4,424.7,169.8,425.1,170.2z M6.9,200.3c-1.8,2.3-0.2,7.8,1.3,10C11.5,206,11.2,203.7,6.9,200.3
	C6.7,200.6,7.8,201,6.9,200.3z M566.6,164.9c1.5-3.1,5.1-4.8,5.5-8.8C568.6,156.9,566.7,159.7,566.6,164.9z M411.3,199.3
	c1.8-2.5,4-4.8,5-7.8C413.7,192.4,408.9,196.8,411.3,199.3C412.9,197.2,409.5,197.4,411.3,199.3z M82,43.3c-2.6,0.6-3.9,1.8-5.3,4.8
	C79.9,48.3,81.9,46.5,82,43.3z M28.5,115.8c0.4,2.8,0.8,5.7,1.3,8.5C33.4,123.9,31.3,116.4,28.5,115.8
	C28.9,118.8,30,116.1,28.5,115.8z M361.1,22.1c0.4,1.2,6.4,2,7,2.2C366.8,19.3,364.5,18.6,361.1,22.1
	C361.1,22.3,362.4,21.4,361.1,22.1z M571.1,43.7c-1.1-2.4-5.7,0.7-5.5,2.2C566.2,48.9,571,44.6,571.1,43.7
	C571,43.5,570.9,45.4,571.1,43.7z M285.3,127c-1.7-0.7-2.8,5.6-3.1,6.8C285,132.9,285.9,130.5,285.3,127
	C285,126.8,285.9,130.5,285.3,127z M61,239.5C57.7,231.5,58.1,239.8,61,239.5C60.3,238,59.1,239.7,61,239.5z M125,233.6
	c-0.9-2.9-6.6,1.4-7.1,2.4C120.6,235.1,122.8,234.3,125,233.6C124.9,233.3,122.8,234.3,125,233.6z M132.1,231.1
	c-1.5-2.2-3.4-2.1-5.8,0.3C127,233.6,128.9,233.5,132.1,231.1C131.5,230.5,130,231.5,132.1,231.1z"/>
</svg>
