<?xml version="1.0" encoding="utf-8"?>
<!-- Generator: Adobe Illustrator 19.2.1, SVG Export Plug-In . SVG Version: 6.00 Build 0)  -->
<svg version="1.1" id="Layer_1" xmlns="http://www.w3.org/2000/svg" xmlns:xlink="http://www.w3.org/1999/xlink" x="0px" y="0px"
	 viewBox="0 0 788.1 272.8" style="enable-background:new 0 0 788.1 272.8;" xml:space="preserve">
<path d="M75.1,105.6c-0.6,3-1.1,4.6-1.3,6.3c-1.1,8-2.1,16-3.4,24c-1.1,7.2-2.5,14.3-4,21.5c-1.1,5.1-2.9,10.1-3.8,15.2
	c-1.5,9.2-2.3,18.4-3.6,27.7c-0.5,3.6-1.2,7.1-2.2,10.5c-1.5,5.1-3.9,9.6-3.5,15.4c0.3,4.6-2.5,9.4-3.9,14.1c-0.8,2.6-1.7,5.3-1.9,8
	c-0.7,7.8-2.6,9.7-10.6,10.4c-5.9,0.5-11.8,1.3-17.6,2c-0.8,0.1-1.8,0-2.4,0.5c-5,3.9-9.9,0.4-14.6-0.5c-1-0.2-2.5-3-2.3-4.4
	C2.4,238.1,5.1,220,7.6,202c1-6.9,1.4-13.8,2.4-20.7c0.6-4.4,2.2-8.6,2.9-13c2.1-12.6,4.5-25.2,5.8-37.9c1.8-17.9,2.8-36,4.1-54
	c1-13.2,2-26.3,2.8-39.5c0.3-5.6-0.6-11.2-0.2-16.8c0.3-4.1,1.4-8.3,2.7-12.2c0.4-1.1,2.8-1.9,4.4-2.2c4.5-0.9,9.1-1.5,13.7-2.1
	c7.5-1,15-2,22.5-2.7C75.4,0.4,82.3-0.2,89,0.1c2.8,0.1,5.6,2.6,8.4,4c0.4,0.2,0.5,1.1,0.8,1.2c8.8,2.4,8.2,10.5,10.2,16.9
	c2.4,7.7,4.7,15.5,7.2,23.3c2.9,9,5.7,18.1,8.8,27c0.9,2.5,3.5,4.5,4.3,7c4,11.4,8.3,22.5,14.2,33.2c4.5,8.2,6.6,17.8,9.8,26.7
	c2.5,6.9,4.9,13.8,7.5,20.7c0.4,1.2,1.5,2.1,3.3,4.5c1-4.9,2.1-8.5,2.5-12.2c1.5-15.3,3.3-30.5,6.5-45.6c1.7-8.2,1.5-16.8,2.4-25.1
	c1.7-15.9,3.4-31.9,5.2-47.8c0.7-6,2.1-12,2.6-18c0.4-4.7,3.7-4.9,6.3-3.8c6.1,2.6,11.9,5.8,17.6,9.2c3.8,2.3,7.2,5.2,10.7,7.9
	c4,3,6.9,6.6,6.4,12c-0.5,5.6,0,11.4-1.3,16.7c-1.7,7.2-1.9,14.2-2.3,21.5c-0.4,8.8-2.4,17.4-3.5,26.2c-1.7,13.7-3.1,27.5-4.9,41.3
	c-1.1,8.8-2.8,17.5-4.1,26.3c-0.6,4-0.5,8.1-1,12.1c-1.4,11.6-3.1,23.2-4.3,34.8c-0.9,9.3-2.9,18.2-8,26c-1.6,2.5-5.1,4.8-8,5.2
	c-5.2,0.7-10.6-0.6-15.9-0.3c-3.8,0.2-7.8,1.3-11.3,2.9c-6.9,3-13.6,0.5-20.4,0.4c-0.6,0-1.5-0.8-1.8-1.4
	c-6.4-12.9-12.9-25.7-19-38.7c-5-10.7-9.6-21.5-14.2-32.4c-7.4-17.8-14.7-35.5-21.6-53.4c-2.3-6.1-3.4-12.6-5.2-18.9
	C76.8,108.5,76.2,107.7,75.1,105.6z"/>
<path d="M670.5,257.7c-1.6,1.9-2.4,2.8-3.2,3.7c0.4,0,0.7,0,1.1,0c0.1,1.9,1,4.2,0.2,5.8c-1.2,2.6-3.3,3.6-6.9,3.2
	c-6.7-0.9-13.6-1-20.4-0.7c-14,0.5-28,1.4-42,2.2c-1.4,0.1-2.7,0.7-4.3,1.1c-0.4-0.8-0.7-2.1-1.5-2.8c-3.1-2.8-1.6-5.1,1.2-6
	c5.5-1.7,4.8-5.6,3.9-9.5c-2.2-9.4-4-19-6.9-28.2c-3.3-10.6-7.7-20.9-11.5-31.3c-2.2-6.1-3.9-12.4-5.9-18.6c-2-6.1-3.7-12.2-6-18.1
	c-3.5-9-7.2-17.8-11-26.6c-5.1-11.9-10.7-23.7-15.5-35.7c-4.6-11.6-8.4-23.5-12.9-35.2c-1.6-4.1-4.3-7.6-6.1-11.6
	c-1.9-4.1-3.7-8.4-4.6-12.8c-0.2-1,3.3-3.9,5.4-4.2c8.9-1.1,17.8-1.4,26.7-2.2c6.2-0.6,12.5-1.5,18.7-2.5c5.2-0.9,6.6,0.4,8,5.2
	c1.4,4.9,3.8,9.5,6,14.2c6.2,13.2,12.7,26.3,18.6,39.6c3.6,8.2,5.4,17.3,9.7,25c5.6,9.9,7.8,20.8,11.8,31.1c3.1,8,6.9,15.7,9.7,23.8
	c2.5,7.1,3.9,14.5,6,21.8c0.4,1.4,1.5,2.5,2.3,3.8c1.1-1,2.7-1.9,3.4-3.1c2.4-4.5,4.4-9.2,6.8-13.6c7.2-13.4,14.9-26.6,21.7-40.2
	c6.3-12.7,11.7-25.9,17.6-38.9c3.9-8.6,8.2-17.1,11.5-25.9c4.7-12.7,8.7-25.7,13.1-38.5c1.6-4.5,3.5-8.9,5.3-13.2
	c1.4-3.3,4.4-3.7,7.5-3.5c11.6,0.7,23.2,1.5,34.9,2.2c4.9,0.3,9.9,0.9,14.8,0.7c5.3-0.2,8.1,2.1,9.2,7c0.3,1.4,0.9,2.7,1.4,4.1
	c-4,0-8.3,4.3-10.1,9.3c-2.4,6.7-4.8,13.5-7.7,20c-3.4,7.7-7,15.3-11.1,22.6c-4.3,7.6-9.8,14.5-13.9,22.2
	c-6.5,12.2-12.4,24.8-18.5,37.2c-4,8.2-7.9,16.5-11.7,24.8c-2.6,5.6-5,11.2-7.5,16.8c-3.5,7.8-7.2,15.5-10.4,23.4
	c-1.5,3.7-2,7.9-3.3,11.7c-4,12.1-8.1,24.1-12.2,36.2c-1,2.9-1.6,6-3,8.6c-0.9,1.6-3.1,2.7-4.9,3.4c-0.4,0.1-1.9-2.4-2.7-3.8
	C670.6,260.6,670.7,259.7,670.5,257.7z M581.2,149.8c0.8-0.3,1.5-0.5,2.3-0.8c-2.3-6.2-4.6-12.3-6.9-18.5c-0.7,0.3-1.3,0.5-2,0.8
	C576.8,137.5,579,143.7,581.2,149.8z M686.7,206.4c-6.4,3.4-7.7,7.2-4,12.2C684.2,213.9,685.4,210.1,686.7,206.4z M651.4,234.6
	c0.7,0.3,1.3,0.6,2,0.9c2.3-4.9,4.6-9.9,7-14.8c-0.4-0.2-0.9-0.4-1.3-0.6C656.5,224.9,653.9,229.8,651.4,234.6z M728.9,39.4
	c6-2,6.6-5.2,4.5-9.7C732.1,32.5,730.7,35.4,728.9,39.4z"/>
<path d="M257.6,159.3c-1.1-13.2,2.2-25.9,6-38.1c2.9-9.1,8.8-17.2,13-25.9c3.4-7.3,9.1-12.3,14.7-17.7c4.8-4.7,7.9-11.1,12.9-15.4
	c10.3-8.9,20.6-18.4,32.4-24.9c12.9-7.1,26.6-14,42-14c6,0,12.1-0.2,18.1,3c3.9,2.1,9.2,1.9,13.8,2.5c6.8,0.9,13.6,1.6,20.4,2.5
	c1.2,0.2,2.4,1.1,3.3,2c3,2.8,5.6,6.4,9,8.6c8.3,5.4,16.3,11.1,22,19.3c8.6,12.3,16,25.3,18.5,40.4c1.4,8.2,3.2,16.4,4,24.7
	c0.4,4.5-0.8,9.3-1.7,13.8c-1.2,6.2-2.4,12.4-4.4,18.4c-2.1,6.5-4.2,13.3-8.1,18.8c-7,9.9-15.7,18.7-23,28.4
	c-8.2,10.9-20.4,16.4-30.9,24.2c-5.6,4.2-12.7,6.5-19.3,8.9c-10.1,3.7-20.4,7-30.8,9.8c-7.3,2-14.7,2.1-22.3,0.3
	c-6-1.4-12.4-1.3-18.6-2.2c-13-2.1-23.6-9-33.8-17c-10.1-7.9-18.2-17.4-26.4-27c-0.9-1.1-1.5-2.5-1.9-3.8
	c-2.7-8.6-5.6-17.1-7.8-25.8C257.7,168.6,258,163.9,257.6,159.3z M453.1,105.4c-0.9-17.1-5.9-28.8-18.5-35.2
	c-9.4-4.8-19.6-8.4-30.7-6.5c-2.1,0.4-4.2-0.1-6.3,0.1c-4.6,0.4-9.4,0.4-13.7,1.7c-9.3,2.8-18.6,5.8-27.6,9.6
	c-5.9,2.5-12.1,5.4-16.8,9.7c-8.1,7.5-15.7,15.8-22.4,24.6c-4.4,5.9-7.3,12.8-8.8,20.5c-1.6,8,2.2,16.7-3.3,24
	c-0.5,0.6-0.3,2.1,0.1,2.9c3.1,5.5,2.4,12.3,6.6,17.5c5.5,6.8,10,14.4,15.4,21.3c7.4,9.4,18.1,14,29,17.7c7.6,2.6,15.6,3,22.8-0.4
	c7.8-3.6,15.5-7.9,22.4-13.1c9.5-7.2,20.3-13.1,27-23.5c4.6-7.1,9.1-14.3,13.6-21.5c5.2-8.4,7-18,8.8-27.4
	C452.3,119.2,452.6,110.6,453.1,105.4z M266.3,163.1c0.5,3.9,1,7.8,1.6,12.1C273.3,171.7,273.3,171.7,266.3,163.1z M406.6,205.6
	c0.3,0.4,0.5,0.8,0.8,1.1c3.9-2.6,7.8-5.2,11.7-7.7c-0.4-0.6-0.9-1.3-1.3-1.9C414.1,199.9,410.4,202.7,406.6,205.6z"/>
</svg>
