<?xml version="1.0" encoding="utf-8"?>
<!-- Generator: Adobe Illustrator 19.2.1, SVG Export Plug-In . SVG Version: 6.00 Build 0)  -->
<svg version="1.1" id="Layer_1" xmlns="http://www.w3.org/2000/svg" xmlns:xlink="http://www.w3.org/1999/xlink" x="0px" y="0px"
	 viewBox="0 0 669.9 340.6" style="enable-background:new 0 0 669.9 340.6;" xml:space="preserve">
<path d="M69.4,338.9c-20.7,1-61.5,9.6-68.1-24.5c-1.4-7.4-3.5-15.1,5-21.1c3.2-2.3,3.4-8.5,5.4-12.8c10.4-22.5,15.5-46.5,19-70.9
	c1.5-10.4,5.1-20.6,7.3-30.9c0.9-4.1,0.5-8.5,1-12.8c2.3-19.6,4-39.2,7.3-58.6c3.2-18.8,1.7-37.4,1.5-56.2
	c-0.2-12.5,1.8-25.3,4.6-37.6c2.3-9.8,12.5-8.2,20-9.6c2-0.4,4.8,0.8,6.2-0.1C88.8-2.8,97.3,0,106.8,6.1c7,4.5,16.2,5.5,23.7,9.5
	c15.8,8.6,30.8,18.4,43.8,31.1c13.2,13,24.2,27.9,32,44.5c5,10.5,6.1,22.8,9.9,34c7.9,23,5.5,46.4,3.2,69.8
	c-0.7,7.4-2,15.2-5.1,21.8c-6.3,12.9-8.9,27.6-19.5,38.6c-6.7,7-33.7,34.1-40.5,41.3c-14.9,15.7-34.7,23.8-53.7,32.9
	c-4.7,2.3-9.6,4.1-14.2,5.8C80.9,337.4,75.2,338.6,69.4,338.9z M98.6,280.3c0.6-0.2,1.2-0.2,1.7-0.5c13.3-5.6,26.7-11.1,40-16.8
	c24.2-11.7,37.4-44.7,39.1-64.1c1-10.9-2.3-21.8-3.5-32.7c-0.8-7.2-6.2-31.9-8.1-37.1c-3.2-8.5-5.7-17.6-10.6-24.9
	c-6.4-9.6-14.7-17.9-22.5-26.4c-12.1-13.3-19.4-11.7-24.3,5.5c-2.8,9.6-1.9,21.5-7.5,28.6c-7.6,9.7-5.7,19.3-6.7,29.3
	c-1.2,11.6-2.6,23.2-4.3,34.7c-1.6,11.5-3.6,22.9-5.4,34.4c-1.4,9.2-2.7,18.4-4,27.6c-0.4,2.9-1.2,6-0.8,8.8
	c0.9,5.2,3,10.3,3.8,15.5C86.5,269.7,93.8,280.2,98.6,280.3z"/>
<path d="M254.1,295.4c1.1-4.5,2.6-8.2,3-12.1c2.7-29.2,5.4-58.5,7.7-87.8c1.4-17.5,4.7-35.5,2.1-52.5c-2.2-14-0.1-27.2-0.3-40.7
	c-0.2-12.5,0.4-24.9,0.7-37.4c0.2-10.8,4.6-19.2,15.1-22.1c3.8-1,7.5-2,11.3-2.8c1.9-0.4,24.4-7.4,25.5-7.6
	c10.6-2.1,21.1-5,31.8-5.8c16.4-1.3,32.9-1.3,49.4-1.8c1.1,0,2.1,0,3.2-0.1c8.5-0.1,16.5,4.3,20.9,11.7c1,1.6,1.9,3.3,2.8,4.9
	c3.3,6.3-4.5,18.7-10.8,21.4c-8.4,3.6-16.6,0-24.6,1.5c-28.5,5.3-51.3,18.8-63.3,46.3c-1.3,2.9-2.9,16.7,1.4,28.2
	c3.5,9.3,13.5,14.3,23,11.9c9.7-2.5,19.1-4.9,28.5-7.4c9.6-2.6,17.7,1.8,23.2,8.2c3.6,4.1,4.3,11.7,4.3,17.7
	c0,5.8-15.1,15.9-22.9,16.6c-8.2,0.7-16.4,2.5-24.5,1.7c-43.9-4.6-39.8,35.4-37.9,41.2c8.6,26.9,32.2,30.9,37,30.9
	c14,0.1,27.8,0.1,40.2,8.2c4.9,3.2,7,6.6,6.6,12.7c-1,15.8-5.2,22.4-19.6,25.9c-3.6,0.9-52.1,3.1-57.6,3c-4-0.1-8-0.7-11.9-0.2
	c-13.1,1.5-26.1,3.7-39.2,5.1c-4.9,0.5-10.2,0.6-14.9-0.6c-2.5-0.6-4.9-4.1-6.2-6.8C256.2,302.8,255.2,298.4,254.1,295.4z"/>
<path d="M542.4,116.3c-10.8,15.7-19,33.3-27.1,50.7c-3.9,8.3-6.4,17.9-6.7,27c-0.4,9.2,2.3,18.5,4.1,27.7
	c1.6,8.3,4.6,15.2,11.4,21.7c8.2,8,33.2,16.4,37.8,17.9c12.5,4.1,39.9-3.2,46.7-9.3c8.3-7.5,18.8-20.1,30.8-15.9
	c5.5,1.9,11.6,5.8,14.4,10.5c1.9,3.4-1.6,9.7-2.3,14.8c-1.5,10.1-18.6,26.6-20.7,27.5c-12.1,5.2-27.9,13.7-50.6,16.5
	c-8.6,1.1-45.6,0.3-55-1.9c-23.3-5.5-44.4-15.6-58.8-35.4c-4.5-6.2-6.5-14.5-8.4-22.1c-1.8-7.3-2.2-15.1-2.9-22.7
	c-0.7-8.1-2.4-16.4-1.4-24.4c2.1-15.1,4.6-30.4,9.1-44.9c6.4-20.7,13.5-41.4,22.9-61c5.3-11.1,15.6-19.8,23.7-29.6
	c1.7-2.1,3.7-4.1,5.1-6.4c6.8-11.8,17.3-18.5,29.8-22.9c5.6-2,10.8-5.2,16.3-7.6c17.1-7.7,35.1-4.6,52.6-3.6
	c7.1,0.4,14,5.6,20.6,9.5c9.6,5.6,17.2,13.2,23,23.2c10.4,17.9,25.1,56.9-4.1,65.5c-5.2,1.5-10.2-2.5-13.9-8.3
	c-2.3-3.6-21.8-25.5-43.5-25.9C572.8,86.4,548.4,107.6,542.4,116.3z"/>
</svg>
