<?xml version="1.0" encoding="utf-8"?>
<!-- Generator: Adobe Illustrator 19.2.1, SVG Export Plug-In . SVG Version: 6.00 Build 0)  -->
<svg version="1.1" id="Layer_1" xmlns="http://www.w3.org/2000/svg" xmlns:xlink="http://www.w3.org/1999/xlink" x="0px" y="0px"
	 viewBox="0 0 541.7 229.4" style="enable-background:new 0 0 541.7 229.4;" xml:space="preserve">
<path d="M226,104.3c6.8-3.3,1.6-9.2,4.4-12.9c3.9-0.4,3.6-0.4,3.6,3.7c0,2.5,1,5,1.7,8.2c1.6-2.5,2.7-4.4,3.2-5.2
	c6.3,2.1,11.9,4.2,17.7,5.8c2.2,0.6,5.1,1.2,5.5-2.8c0.1-1,1.4-2,2.3-3.1c2.5,1.4,4.9,2.8,7.8,4.5c0.3-2.4,0.6-4.2,1-7
	c7.4,2.7,14.7,3.2,22.8-1.6c-0.7-7.6-1.5-16.7-2.3-26.1c-4.7,0.6-4.9-1.9-4.5-5.4c0.3-3-0.2-6.1-0.5-9.1c-0.4-5-0.9-9.9-2.4-15
	c-1,7-2,14.1-3,21.1c-0.3,0.1-0.6,0.1-0.9,0.2c-2.3-11.2-4.7-22.4-7-33.5c-0.4-0.1-0.9-0.1-1.3-0.2c-1,5.7-1.9,11.3-2.9,17
	c-0.5-0.1-1-0.1-1.5-0.2c-2.3-6,1.1-13-3.9-19.5c-0.8,7.3-1.4,13.3-2.1,19.2c-0.4,0-0.8,0-1.3,0c-0.9-6.2-1.8-12.4-2.7-18.5
	c-0.5,0-1,0-1.5,0c-0.4,6.4-0.9,12.9-1.3,19.3c-0.6,0.2-1.3,0.4-1.9,0.5c-1-2.3-2-4.5-2.9-6.5c-0.6,1.8-1.3,3.9-2,6.1
	c-0.7,0-1.3-0.1-2-0.1c-0.9-3-1.8-5.9-2.9-9.7c-1.2,3.1-2.2,5.6-3.2,8c-0.3,0-0.6,0.1-0.9,0.1c-1-10.5-1.9-21-3.1-33.5
	c10.5,6.5,20,9.2,30.8,3.6c1,1.1,2.4,2.6,4.2,4.5c0.3-2.3,0.6-4.4,1-7.1c2.9,1.3,5.7,2.2,8.2,3.6c0.8,0.5,1.2,2.2,1.3,3.4
	c0.8,6.4,1.5,12.7,2.2,19.1c0.7-0.1,1.3-0.1,2-0.2c-0.4-4.5-0.9-9-1.3-13.5c-0.2-1.8-1-3.7-0.5-5.3c0.4-1.2,2.5-2.9,3.5-2.7
	c3,0.6,5.8,2,9.1,3.2c0-2,0-3.6,0-5.3c0.5-0.1,1-0.2,1.6-0.3c3.1,6.3,4.7,13.1,4.9,20.9c1.8-0.9,3.1-1.5,5.1-2.5
	c0.3,3.3,0.7,6.3,0.9,9.4c0.7,9.5,1.4,18.9,2,28.4c0.3,4.2,0.6,8.5,0.9,12.7c0.6,9,1.4,17.9,1.8,26.9c0.3,6.2,0.2,12.5,0.1,18.7
	c-0.1,5.5-0.9,11-0.9,16.5c-0.1,9.5,0.5,19,0.2,28.5c-0.3,8.6-1.3,17.3-2.3,25.9c-0.2,1.6-2.3,2.9-3.9,4.8c-1.5-2.9-2.5-4.8-3.6-6.8
	c-2,1-3.9,1.9-6.9,3.3c-0.5-2.1-1.5-4.1-1.4-6c0.7-12.2,1.7-24.5,2.6-36.7c0.5-7.3,0.9-14.6,1.2-21.8c0.2-4.4-5.4-9-9.3-7.4
	c-6.8,2.7-13.2,0.8-19.7-1.3c-1.6-0.5-3-1.8-4.6-2.1c-4.6-1-3.3,4.3-5.9,6.1c-0.9-1.5-1.7-2.7-2.9-4.8c-0.8,3.5-1.4,6.3-2.1,9.2
	c-3.8-0.4-8.2,5.4-10.7-0.9c-2.8,1.8-5.3,3.3-8.8,5.5c-1.5-7-2.8-13.3-4.2-19.5c-0.3,0-0.6,0-0.9,0c0,4.4,0,8.9,0,13.3
	c0,1.3,0.5,2.8,0.1,4c-0.3,1.1-1.5,2-2.3,3.1c-0.7-1.1-1.8-2.2-1.9-3.4c-0.5-4.5-0.6-9-0.9-13.5c0-0.5-0.2-1-0.5-1.4
	c-5.9-6.2-4.3-14.6-6-21.9c-1.8-7.9-2.2-16-3.2-24c-0.2-1.3-0.5-2.6-0.7-4c-0.6,0.1-1.2,0.2-1.9,0.2c0.8,8.7,1.8,17.4,2.5,26.2
	c0.2,2.2-1.1,4.4-0.9,6.6c0.4,5.6,1.4,11.2,1.9,16.8c0.4,4.7,0.5,9.5,0.9,14.2c0.4,6,1.1,11.9,1.4,17.9c0.3,5.5,0.3,11.1,0.3,16.6
	c0,5.4-0.1,10.7-0.2,16.1c-0.1,5.5-2.8,7.2-8.2,5c0,4.8-0.5,9.6,0.1,14.2c0.7,5.6-2.7,9-5.9,12.3c-3.2,3.5-4.7-1.8-7.3-2.4
	c-1,1.1-1.8,2.3-2.8,3.1c-2.7,2.3-6.3,1.3-7.3-2.1c-2.1-7.1-4.4-14.1-6-21.3c-0.3-1.3,2.7-3.2,4.2-4.9c0.9-1.1,2.2-2.2,2.4-3.4
	c0.3-2,0.2-4.3-0.5-6.2c-1.3-3.5-0.7-5.9,2.2-8.3c0.9-0.7,1-2.8,0.9-4.1c-1-8.8-2.2-17.6-3.2-26.4c-0.1-0.9,0.9-1.9,1.3-2.9
	c0.8,0.7,1.9,1.2,2.4,2.1c0.7,1.2,0.9,2.7,2.5,3.8c0-6.4,0.3-12.8-0.1-19.1c-0.7-12.5-1.8-25-2.9-37.5c-0.7-8.1-1.4-16.2-2.2-24.3
	c-0.5-5,0.4-5.8,5-4.7c0-13.8,0-27.8,0-41.7c4.1,0.9,5.6,3.8,5.9,10.9c0.4,8.7,0.9,17.5,1.5,26.2c0.9,12.9,1.8,25.7,2.7,38.5
	c0.8,11,1.8,22,2.6,33c0.6,8.1,2.3,16.4,1.1,24.2c-1.4,8.9,1.2,16.9,1.5,25.8c5.3-2.7,3.6-8.1,3.6-11.4c-0.1-14.9-1.6-29.7-2.4-44.6
	c-0.4-6.7-0.5-13.4-0.7-20.2c-0.3-11.5-0.7-23.1-1-34.6c-0.4-13-0.9-25.9-1.3-38.9c-0.2-4.3,1.7-7.2,5.7-9.2
	c3.6,5.4,5.6,10.5,3.8,17.2c-0.9,3.4,0.9,7.5,1.4,11.4c1.1,8,2.6,15.9,3.1,23.9c0.4,6-1,12.2-0.4,18.2
	C222.4,92.2,224.5,97.9,226,104.3z M304.7,193.7c5.1-5.9,8.4-120.4,2.4-124.6c0,14.3,0.2,28,0,41.6s-1.5,27.3-1.1,40.9
	C306.3,165.3,301.6,178.8,304.7,193.7z M307.2,65.2c0.5-0.1,1.1-0.1,1.6-0.2c-0.2-3.5-0.4-7.1-0.6-10.6c-0.8,0.1-1.6,0.2-2.4,0.3
	C306.3,58.2,306.7,61.7,307.2,65.2z"/>
<path d="M64.8,191c0.6-1.7,1.1-3,1.7-4.5c3,1.3,5.7,2.5,9,3.9c0.2-2.7,0.3-4.1,0.5-6.2c2.3,0.5,4.5,0.9,6.9,1.4
	c-0.8-9.1-1.5-18.1-2.2-27.1c-0.4-5-0.6-10-0.9-15c-0.7-9.9-1.6-19.9-2-29.8c-0.3-8.1,0.2-16.2-0.1-24.3c-0.4-10-1.2-19.9-1.8-29.9
	c-0.5-7.9-0.9-15.9-1.5-23.8c-0.3-4.1-1.3-8.2-1.5-12.2c-0.1-1.5,1.3-3.1,2.1-4.7c1.9,1.3,4.9,2.3,5.4,4c1.5,5.2,2,10.7,2.8,16.1
	c0.7,4.6,1.3,9.2,2,13.8c0.7-0.1,1.4-0.2,2.1-0.3c-0.6-4.1-1.1-8.3-1.7-12.4c-0.9-6.1-2.2-12.2-2.4-18.4c-0.1-1.7,3-3.5,4.7-5.3
	c1.3,1.7,3.3,3.2,3.7,5c0.8,4.4,0.8,9,1.3,13.4c0.1,1.1,0.7,2.2,1.5,3.2c2-7.9,0.4-16.2,3.1-24.3c-0.3,5.9,1.8,7.1,6.9,5.7
	c0.9-0.3,3.6,2.5,4,4.1c1.2,5.4,1.8,11,2.4,16.5c1.1,9.2,2.2,18.4,3.1,27.6c0.8,7.6,1.2,15.3,1.9,22.9c0.6,7.1,1.8,14.1,2.1,21.2
	c0.5,11.2,0.1,22.5,0.8,33.7c0.8,13.7,2.3,27.4,3.3,41.1c0.2,2-0.6,4.2-1,6.2c-0.4,2.3-0.7,4.7-1.4,6.9c-0.4,1.4-1.5,2.7-2.2,4
	c-1.4-1.2-3.8-2.2-4.1-3.7c-1.2-5.6-1.6-11.3-2.4-16.9c-0.4,0-0.9,0.1-1.3,0.1c0.1,2.2,0.2,4.3,0.4,6.5c0.4,5.6,0.9,11.2,0.9,16.8
	c0,1-2.3,2.1-3.6,3c-1,0.7-2.5,0.9-3,1.8c-3.7,6.9-3.7,6.9-8.8,0c0.1,2.2,0.2,3.4,0.3,4.5c0,1.1,0,2.2,0,4c-2.5-0.3-4.7-0.5-6.2-0.7
	c-1.6,2.3-3.1,4.3-4.5,6.3c-1.7-1.7-3.5-3.4-5.1-5c-1.5,2.8-3.1,6-4.8,9.2c-0.3-0.6-0.6-1.2-0.8-1.8c-3-0.8-6-1.6-10-2.6
	c-0.6-1.5-1.6-4.3-2.7-6.9c-1.4-3.4-3.8-3.8-6.2-1.2c-2.7,2.9-6.3,2.1-7.2-2.1c-0.7-3.3-1.5-4.6-4.8-2.4c-1.6,1-6.2-3.7-7-6.7
	c-0.3-1.1-1.2-2.1-1.7-3.2c-1,0.7-2.2,1.2-2.9,2.1c-1.9,2.4-4.5,2.1-5.6-1.1c-2.6-7.5-5-15.1-7.5-22.7c-0.1-0.4-0.6-0.8-0.9-1.2
	c-1.9,3.5-3.8,6.9-5.8,10.5c-5.6-3.4-6.4-8.9-8-13.8c-1.6-4.8-2.9-9.6-4-14.5c-0.3-1.5,0.6-3.2,0.9-4.8c1.8,0.4,5.1,0.8,5.2,1.4
	c0.3,3.6,3.8,3.7,5.6,5.5c1.7,1.7,4.7,2.1,6.8,3.5c1.4,0.9,2.8,2.3,3.6,3.8c2.2,3.9,3.3,7.8,9.4,8.7c4.9,0.7,9.6,4.3,15.1,4.2
	c1,0,2.7,1.2,2.8,2.1c0.7,3.8,3.8,2.8,5.2,2c3.6-2.2,6-1.8,8,1.9C62.6,190.7,63.6,190.7,64.8,191z M103.8,67.4
	c0.7-0.1,1.5-0.2,2.2-0.3c-1.6-13.8-3.1-27.6-4.7-41.3c-0.6,0.1-1.2,0.1-1.8,0.2C99.7,39.9,100.6,53.7,103.8,67.4z M102,129.6
	c-0.6,0-1.1,0-1.7,0c-0.1,2.2-0.5,4.4-0.3,6.5c0.5,7.4,1,14.7,1.7,22.1c0.1,1.4,1.1,2.8,1.6,4.2c0.8-1.5,2.5-3.1,2.3-4.5
	c-0.6-6.7-1.7-13.4-2.6-20.1C102.7,135,102.4,132.3,102,129.6z M89.4,85.6c-1,0-1.9,0.1-2.9,0.1c0.5,9.7,1,19.3,1.5,29
	c0.5,0,0.9,0,1.4-0.1C89.4,105,89.4,95.3,89.4,85.6z M103.4,109c3-3.4,2.7-16.2,0-19.9C103.4,95.8,103.4,102,103.4,109z"/>
<path d="M428.8,108.1c-0.3,3.2-0.5,6.3-0.8,9.5c-8.1-29.7-13.2-59.8-16.1-90.2c-0.1-0.9,1.1-1.9,1.7-2.8c0.6,0.1,1.2,0.1,1.9,0.2
	c1.1,7.5,2.2,15.1,3.4,22.6c0.4,2.5,1.9,4.8,2.3,7.4c1.3,9.7,2.2,19.4,3.5,29c0.5,3.5,1.9,6.9,3.9,10.2c-0.3-5.5-0.7-11.1-1-16.7
	c-0.3-5.5-0.1-11-0.7-16.5c-0.7-5.6-2.1-11.1-3.3-17.1c1.1-0.4,2.5-0.8,4.9-1.6c1.3,7.1,2.5,13.8,3.8,21c1.2-1.4,2.2-2.5,3.6-4.2
	c1.2,4.6,2.3,8.6,3.3,12.6c0.5,0,0.9-0.1,1.4-0.1c0-1.8-0.2-3.7,0.1-5.5c0.2-1.5,0.9-2.9,1.4-4.4c0.7,0,1.4,0,2.2,0.1
	c1.4,5.9,2.9,11.8,4.3,17.7c5.4-3,6.2-2.5,7,3.5c0.4,2.6,0.9,5.1,1.5,8.8c1.4-2.2,2.1-3.5,3.1-5.1c4.1,4.9,7.4,9.7,6.6,16.3
	c-0.1,0.7,0.1,1.8,0.6,2.2c3.4,2.3,7,4.3,10.4,6.6c1.4,1,3,2.4,3.5,3.9c1.2,3.2,1.7,6.6,2.5,9.9c0.5,0,1,0,1.5-0.1
	c0.2-1.3,0.1-2.7,0.6-3.8c0.6-1.3,1.7-2.4,2.5-3.6c1,1.3,2.5,2.6,2.8,4c1.5,7,2.7,14.1,4,21.2c0.5-0.1,1-0.1,1.5-0.2
	c0.2-3.8,0.2-7.7,0.6-11.5c0.1-1,1.2-2,1.9-2.9c0.8,0.9,2.2,1.7,2.3,2.6c0.8,8.8,1.4,17.6,2.2,26.4c1,11,2,22,3.5,32.9
	c0.7,4.7-1.2,5-4.9,4.4c-0.4-3.9-0.7-7.6-1.1-11.3c-0.3-3-1-2.9-3.8-2.1c-1.1,0.3-4-1.5-4.1-2.5c-0.6-6.5-0.5-13.1-1-19.6
	c-0.1-1.8-1.3-3.5-3.3-5.2c0,1.6-0.1,3.2,0,4.8c0.2,1.5,1,2.9,1,4.3c0,2.9,0.4,6.3-3.3,7.5c-2.3,0.8-8.4-3-9.1-5.5
	c-0.9-3.1-1.1-6.6-5.8-6.6c-0.7,0-1.9-2.6-2.2-4.1c-1.4-10.2-2.4-20.5-4-30.7c-1.1-7.2-2.8-14.3-4.2-21.5c-0.6,0.1-1.2,0.2-1.7,0.3
	c1.6,12.9,3.2,25.8,4.8,38.8c-3,1.9-4.2,0-4.8-2.4c-0.9-3.4-1.2-6.4-5.8-7.4c-1.9-0.4-3.1-4.2-4.9-6.8c-0.3,1.9-0.5,3.4-0.7,4.9
	c-0.4,0.2-0.9,0.5-1.3,0.7c-1-1.7-2.5-3.3-2.8-5.1c-1.7-9.1-3-18.3-4.6-27.5c-1.3-7.5-2.7-15-4-22.5c-0.5-0.1-1-0.1-1.5-0.2
	c-0.3,2.6-1,5.3-0.9,7.9c0.3,7.7,0.9,15.4,1.3,23.1c0.2,2.5,0.4,5.1,0.4,7.6c0,1.7-0.3,3.4-1.3,5.1c-1.4-3.8-2.8-7.6-4.2-11.3
	C429.3,107.9,429.1,108,428.8,108.1z M442.3,76.2c-0.7,0.2-1.4,0.3-2.1,0.5c1.1,6.9-0.4,14.2,3.1,20.7c0.4-0.1,0.9-0.2,1.3-0.2
	C443.8,90.2,443,83.2,442.3,76.2z M455.3,126.4c0.6-0.1,1.2-0.1,1.7-0.2c-0.4-5-0.8-10.1-1.2-15.1c-0.4,0-0.9,0.1-1.3,0.1
	C454.8,116.3,455.1,121.3,455.3,126.4z M451.7,89.6c-0.8,0.2-1.6,0.4-2.4,0.6c0.7,3.1,1.4,6.1,2.1,9.2c0.8-0.2,1.5-0.3,2.3-0.5
	C453,95.8,452.4,92.7,451.7,89.6z M497.5,160.1c0.3,0,0.6,0,0.9-0.1c0-4,0-8.1,0-12.1c-0.6,0-1.2,0.1-1.9,0.1
	C496.9,152,497.2,156,497.5,160.1z"/>
<path d="M532.7,139c-0.6-9.5-1.1-19-1.8-28.5c-0.7-9.6-1.4-19.1-2.7-28.6c-1.5-11.1-4.6-22.1-5-33.3c-0.4-9.5-3-18.6-3.7-27.9
	c-0.2-2.9-2-5.6-2.4-8.5c-0.2-1.6,1.2-3.4,1.9-5.1c1,1.2,2.8,2.3,3,3.7c1.7,9.9,3,19.9,4.5,29.8c2.2,14.7,4.9,29.4,6.7,44.1
	c1.7,13.8,2.5,27.6,3.7,41.4c1.2,14.7,2.4,29.4,3.6,44.1c0.5,5.9,0.8,11.8,1.2,17.6c0.4,6.3-1.2,7.4-7.1,4.9c-0.7-0.3-1.5-0.6-3-1.1
	c0,1.9,0,3.5,0,5.6c-0.7,0.3-2,0.9-3.3,1.5c-1.2-2.1-2.2-4-3.5-6.3c-0.8,2.3-1.4,4-2.3,6.6c-2.5-3.7-4.4-6.4-6.4-9.4
	c-0.9,1.1-1.2,1.4-1.3,1.6c-0.2,1.6-0.4,3.2-0.6,4.8c-1.2-1.3-2.6-2.5-3.6-3.8c-2.9-3.9-1.4-8-1.1-12.3c0.5-6.7-0.1-13.4-0.4-20.2
	c-0.6-13.5-1.1-27.1-1.9-40.6c-0.1-2.3-1.1-4.4-1.5-6.7c-1.5-9.1-3.1-18.1-4.2-27.2c-0.8-6.2-0.7-12.5-0.1-18.8
	c3.2,19.2,6.4,38.3,9.6,57.5c0.6,0,1.3,0,1.9-0.1c0-5,0.2-10-0.1-15c-0.2-3.2-1.4-6.3-1.6-9.6c-0.7-8.1-0.9-16.2-1.8-24.2
	c-0.9-7.3-2.6-14.6-3.8-21.9c-2-13.4-3.8-26.8-5.8-40.3c-0.4-2.6-1.2-5.1-1.5-7.8c-0.2-1.6,0.4-3.3,1.8-5
	c10.6,45,16.2,90.4,15.5,136.8c6-1.8,7.4-4.4,6.5-10.1c-1.7-10-1.6-20.4-2.9-30.5c-1.2-9.3-3.3-18.5-4.6-27.7
	c-1.1-8-1.5-16.1-2.5-24.1c-1.1-8.7-2.7-17.4-3.8-26.1c-0.2-1.6,0.5-3.2,0.8-4.9c0.7,0,1.3,0,2-0.1c3.3,21,6.4,42,9.8,63
	c3.5,20.9,7.3,41.8,10.9,62.7C532,138.9,532.4,139,532.7,139z"/>
<path d="M319.3,49.7c0.4,3.8,1,7.6,1.3,11.4c0.2,1.9-0.2,3.9,0,5.8c0.7,9,1.4,18,2.4,27c0.3,2.9,2.2,5.7,2.6,8.7
	c1.5,12.8,2.8,25.7,4.1,38.5c0.1,0.7-0.2,1.6,0.1,1.9c6.7,6.5,2.6,15.3,4.9,22.4c2,5.9,2.8,12.4,6.5,17.9c2,2.9,2.8,6.9,3.1,10.5
	c0.2,3.1-3,4.5-5.5,4.2c-1.6-0.2-2.8-2.7-4.2-4.2c-1-1-2-2-3.1-3c-0.5,1.2-1.3,2.3-1.6,3.5c-0.3,1.4,0,3-0.3,4.4
	c-0.7,3.1-1.9,5.2-5,1.9c-0.4-0.4-1.1-1.1-1.6-1c-8.2,1.4-6.4-4.6-6.4-8.8c0-7.7,0.2-15.5,0.6-23.2c0.6-10.2,1.9-20.3,2.2-30.5
	c0.3-8.6-0.9-17.2-0.5-25.8c0.9-18.6-0.3-37.1-1.9-55.5c-0.2-1.9,0.2-3.9,0.3-5.9C317.9,49.8,318.6,49.7,319.3,49.7z"/>
<path d="M382.9,21.7c0.3,11.6,3.4,22.9,0.3,34.6c-0.8,3,1.4,6.7,1.6,10.1c0.5,7,0.6,14.1,0.7,21.2c0,1.3-0.9,2.6-1.3,3.6
	c0.8,1.6,2.1,3.2,2.2,4.8c0.7,11.1,1.5,22.2,1.7,33.3c0.2,10.6-0.5,21.2-0.3,31.8c0.1,9,1,18,1.5,26.9c0.2,4.1,0.4,8.2,0.3,12.3
	c0,2.5-0.8,4.8-4,4.4c-2.8-0.3-5.1-0.5-5.2-4.9c-0.1-12.7-1.4-25.3-1.6-38c-0.2-12.1,0.5-24.2,0.4-36.2c-0.1-8-0.9-16.1-1.4-24.1
	c-0.5-8.7-0.9-17.4-1.2-26.1c-0.5-16.3-0.8-32.6-1.4-48.9C375.1,21.6,378.1,21.2,382.9,21.7z"/>
<path d="M402.9,212.4c-4.9,2.1-5.8-1.9-6-5.2c-0.7-9.7-0.8-19.5-1.3-29.2c-0.5-10.2-1.2-20.4-1.7-30.6c-0.7-13.6-1.4-27.2-1.9-40.8
	c-0.5-12.8,0.3-25.8-1.2-38.5c-1.8-15-0.5-30.1-1.9-45.1c-0.1-1.5,0.9-4.2,2-4.6c3-1.2,4,1.5,4.4,3.8c1.5,7.7,2.2,15.2-0.1,23.3
	c-1.4,4.7,0.7,10.3,1.1,15.6c0.2,3,0.2,6,0.3,9.1c0.2,4,0.2,7.9,0.5,11.8c0.8,9.4,1.9,18.7,2.4,28.1c0.4,8.7,0.1,17.5,0.3,26.3
	c0.1,3.8,0.7,7.5,0.9,11.3c0.8,11.4,1.7,22.8,2.1,34.2C403.2,191.7,402.9,201.7,402.9,212.4z"/>
<path d="M130.3,47.7c-0.6,2.2-1.2,4.3-1.7,6.1c-1.7,0.8-3.1,1.5-4.5,2c-1.6,0.6-3.5,1.7-4.7,1.2c-1.3-0.6-2.5-2.6-2.8-4.2
	c-1.4-8-2.5-16.1-3.7-24.1c-0.3-1.8-1.3-3.4-1.5-5.2c-0.1-1.9,0.4-3.8,0.7-5.7c1.7,0.4,3.5,0.8,5.2,1.3c0.4,0.1,0.8,0.5,1.8,1.1
	c0.8-1.5,1.6-3,2.8-5c1.9,1,3.8,2,5.8,3.1c3.8-3.5,6-2.8,7.1,3c0.9,5.1,1.4,10.4,2,15.6c0.5,3.8,1.1,7.7,1.3,11.5
	c0.1,1.6-1,3.3-1.5,4.9c-1.6-1.3-3.3-2.5-4.8-3.8c-0.4-0.3-0.4-1.1-0.5-1.7C130.9,47.7,130.6,47.7,130.3,47.7z"/>
<path d="M404.7,17.4c0.9,1.9,2.3,3.8,2.8,5.8c1.2,5,2,10,2.8,15c0.2,1.6-0.2,3.2-0.1,4.8c0.3,5,0.7,9.9,1.1,14.9
	c0.1,0.8,0.7,1.5,0.7,2.3c0.3,7.1,0.6,14.2,0.8,21.4c0,0.8,0.2,1.9-0.2,2.4c-3.5,5-0.3,9.7,0.4,14.6c0.7,4.9,0.7,9.9,0.7,14.8
	c0,0.8-1.3,1.6-2,2.3c-0.6-0.8-1.7-1.5-1.8-2.3c-1.6-11.6-3.4-23.2-4.3-34.8c-0.9-12.5-0.8-25-1.4-37.5c-0.3-5.5-1.3-11-1.7-16.6
	c-0.2-2.2,0.2-4.5,0.4-6.7C403.4,17.7,404.1,17.6,404.7,17.4z"/>
<path d="M33.8,19.4c5.6-2.6,6.1,2.5,8,4.4c1.8-1.5,3.5-2.9,5.2-4.3c1.3,1.8,3.3,3.3,3.7,5.3c1.4,6.1,2.4,12.2,2.9,18.4
	c0.1,1.4-1.8,4.1-3.2,4.4c-2.1,0.4-4.5-0.7-7.2-1.3c0.1-0.3,0,0.4-0.3,0.8c-1.6,1.8-3.2,3.6-4.8,5.4c-1.4-1.8-3.8-3.4-4-5.3
	c-0.5-6.6-0.3-13.4-0.3-20.1C33.8,24.5,33.8,22,33.8,19.4z"/>
<path d="M150.2,46.1c-2,2.4-3.8,4.5-5.6,6.7c-1.5-2.7-3.8-5.2-4.4-8.1c-0.8-3.5-0.1-7.3-0.3-11c-0.1-2.7-0.5-5.3-0.9-7.9
	c-0.5-3.2-1.1-6.3-1.7-9.6c5.1-1.1,6.9,0.8,7.2,4.9c0.2,2.8,0.6,5.6,0.9,8.4c0.6,0,1.3-0.1,1.9-0.1c0-3.6,0-7.2,0-11.5
	c2.7-2,5.1-0.5,5.9,2.8c1.8,7.2,3.1,14.6,4.3,22c0.3,1.6-0.9,4.8-1.5,4.8C154,47.4,151.8,46.5,150.2,46.1z"/>
<path d="M62.8,24.5c3.3-1.7,7.5,0.4,8.4,5.7c0.8,4.6,1,9.2,1.2,13.9c0,1.2-1,3.5-1.8,3.6c-3.9,0.6-7.8,1-11.7,0.7
	c-1.1-0.1-2.6-2.3-2.9-3.8c-1-6.1-1.8-12.3-2.2-18.5c-0.1-1.7,1.1-3.5,1.7-5.3C57.7,22,60,23.1,62.8,24.5z"/>
<path d="M225.7,84c-0.6-9.9-1.5-19.2-1.8-28.5c-0.4-9.5-0.2-18.9-0.4-28.4c-0.1-4.1-0.8-8.2-1.3-12.4c-0.1-0.6-0.6-1.5-0.4-1.9
	c1.1-2.1,2.4-4.1,3.6-6.1c0.8,2.1,2.3,4.2,2.4,6.3c0.6,9,0.8,18,1.1,27c0.2,5.7,0.4,11.4,0.5,17.2c0.1,5.6,0.3,11.2,0.2,16.9
	c-0.1,3-0.6,5.9-1.3,8.8C228.2,83.4,226.6,83.6,225.7,84z"/>
<path d="M31.6,33.6c-0.3,4.9-0.6,9.8-0.8,14.8c-0.1,3.6-2.5,3.5-4.8,3.1c-2.6-0.5-4.9-1.5-4.5-5c0.4-3.6,1-7.2,1.1-10.8
	c0-2.5-1.3-5.2-0.9-7.6c0.4-2.2,1.7-5.1,3.5-6.1c2.6-1.5,4.6,0.5,5.2,3.4c0.5,2.7,1.1,5.4,1.6,8.1C31.9,33.5,31.7,33.6,31.6,33.6z"
	/>
<path d="M157.7,16.9c4.7-0.2,6.3,2.3,7,5.8c0.9,5,1.9,10,2.9,14.9c0,0.2,0.1,0.3,0.1,0.5c-0.2,2.9,1.6,6.6-2.6,8.1
	c-2.9,1-5.2-2-5.7-6.9c-0.6-5.9-1.3-11.7-1.9-17.6C157.3,20.2,157.6,18.6,157.7,16.9z"/>
<path d="M234.2,51.8c-0.6-8.5-1.1-17-1.8-25.5c-0.5-5.7-1.6-11.3-2.1-17c-0.1-1.1,0.9-2.4,1.4-3.6c1.1,0.6,2.9,1,3.2,1.8
	c0.7,2.3,1.8,5.2,1,7.1c-1.8,4.2-0.6,7.7,0.6,11.5c2.6,8.6,1.3,17.1-0.3,25.6C235.5,51.7,234.9,51.8,234.2,51.8z"/>
</svg>
