<?xml version="1.0" encoding="utf-8"?>
<!-- Generator: Adobe Illustrator 19.2.1, SVG Export Plug-In . SVG Version: 6.00 Build 0)  -->
<svg version="1.1" id="Layer_1" xmlns="http://www.w3.org/2000/svg" xmlns:xlink="http://www.w3.org/1999/xlink" x="0px" y="0px"
	 viewBox="0 0 634.6 291.4" style="enable-background:new 0 0 634.6 291.4;" xml:space="preserve">
<path d="M462.2,2.5c1.1,1.6,2.5,3,3.1,4.8c0.9,2.8,1.8,4.9,5.4,3.7c0.7-0.2,2,0.1,2.6,0.6c7.8,6.2,17,7.1,26.4,7.2
	c11.5,0.2,23,0.4,34.5,1c8.8,0.5,17.8,0.9,26.4,2.5c9.1,1.6,17.5,5.6,25.3,10.9c3.8,2.6,8.6,3.9,11.7,7
	c10.1,10.3,21.8,19.4,27.3,33.6c1.2,3,3.2,5.7,4.5,8.7c5,11,5.9,22.7,4.7,34.5c-0.9,8.3-6.5,14.9-12.4,20.3
	c-7,6.4-14.9,11.9-22.6,17.5c-3.4,2.4-7.4,3.9-12.5,6.6c4.4,1.7,7.4,3.1,10.4,4c9.8,2.9,18.5,7.5,25.1,15.5c3,3.7,6.8,6.8,9.1,10.8
	c4.7,8.3,0.5,16.2-3.4,23.3c-3.3,6.1-7.8,11.7-12.9,16.5c-4.7,4.4-11,7-16,11.1c-11.5,9.4-25.6,13-39,17.6
	c-12.6,4.4-25.7,7.3-39.2,8.4c-6.4,0.5-12.7,2.4-19,2.4c-7.6,0.1-15.2-1.2-22.8-1.9c-1.8-0.2-3.6-0.3-5.4-0.6
	c-4.1-0.8-8.3-1.2-12.2-2.6c-3.2-1.1-5.3-1.5-7.4,2c-2.4,3.9-5.9,7-8.5,10.7c-2,2.9-3.9,6.2-4.8,9.5c-0.9,3.6-3.1,3.6-5.6,3
	c-2.9-0.7-3.8-2.6-2.9-5.7c1.8-6.3,3.4-12.7,4.8-19c1.7-7.4,1.1-7.5-6.2-9.3c-4.4-1.1-8.4-3.7-12.4-5.8c-0.6-0.3-1.3-2.1-1-2.4
	c0.8-0.9,2.1-2,3.2-2c5.3-0.2,10.6-0.7,15.8,0.2c3.4,0.6,4.6-0.2,5.3-3c2.2-9.9,6.1-19.2,6.4-29.7c0.4-11.3,2.8-22.5,4.6-33.7
	c2-12.7,4.5-25.3,6.6-38c1.7-10.4,3-20.8,4.5-31.2c1.4-9.9,1.9-20,4.2-29.7c1.7-7,3.9-14.4,11.6-18.2c3.6-1.8,7-4.2,10.5-6.2
	c6.6-4,13.5,0.8,14.2,8.9c0.4,5.7-0.4,11.6-1.1,17.4c-1.1,9.5-2.4,19-3.8,28.5c-1.1,7.8-2.3,15.7-3.7,23.4c-1.1,5.9,0.3,7.4,6.2,6.6
	c13.8-1.8,27.3-5,40-10.6c7.7-3.4,14.3-9.1,21.7-13.4c8.5-5,15.4-11.7,21.4-19.5c2.8-3.6,4.8-7.8,7.2-11.7c1.8-3,0.7-5.1-1.9-7.2
	c-4.7-3.9-9-8.2-13.7-12c-2.8-2.2-6-4-9.2-5.6c-21.8-10.5-45-13.9-68.9-12.5c-7.4,0.4-14.7,2-21.9,3.4c-3,0.6-5.6,2.4-8.6,3.2
	c-4.9,1.3-7.2-0.6-7.5-5.4c-0.5-8.9-1.5-17.8-1.6-26.8c-0.1-7.1,0.8-14.1,1.3-21.2C460.8,2.9,461.5,2.7,462.2,2.5z M465.1,247
	c0.2,0.6,0.4,1.1,0.6,1.7c10.9,0,21.8,0.4,32.6-0.1c9.6-0.4,19.2,0.2,28.5-3.8c11.8-5.2,24.4-8.7,36-14.3
	c7.8-3.8,16.6-7.2,19.5-17.4c3.2-11.5-3.4-28.2-14.9-30.7c-6.1-1.3-12.1-2.9-18.1-4.7c-14.6-4.2-29.4-4.4-44.4-3.1
	c-3.3,0.3-6.6-0.1-9.8,0.3c-1.5,0.2-3.7,1.3-4.1,2.5c-0.9,2.9-1.4,6.1-1.3,9.2c0,8.9-4,17-4.2,26.2c-0.2,9-4.3,18-7,26.8
	c-1.1,3.5-2.8,6.5-7.8,5.3C469.1,244.5,467,246.3,465.1,247z"/>
<path d="M253.3,112.7c4.8-0.7,9.2-0.9,13.3-2.1c11.7-3.5,23.6-4.3,35.7-4.4c6.9,0,13.8-1.4,20.8-1.7c5.1-0.2,9.2,6.2,7.3,10.9
	c-2.6,6.9-1.1,13,4.3,18c1.5,1.4,2.9,3.1,4,4.9c0.5,0.7,0.3,2.8-0.1,3c-3.7,1.7-6.6,4.8-11.5,4c-4.8-0.7-10-0.2-14.8,0.8
	c-12.2,2.5-24.2,6-36.5,8.1c-11.4,1.9-21.9,6.2-32.6,10.2c-2.7,1-4,2.6-5,5.8c-3.4,11.4-7.9,22.5-11.7,33.8
	c-0.8,2.2-0.4,4.9-0.5,7.1c5,0,8.9,0.2,12.8,0c9.2-0.5,18.3-0.9,27.4-1.8c10.1-1,20.2-2.7,30.3-3.9c5.8-0.7,11.7-0.4,17.4-1.7
	c6.2-1.4,12.2-3.9,18.3-6c2.3-0.8,4.6-2.1,7-2.5c4.9-0.7,8.4-2.1,9.3-7.8c0.5-3.2,4.9-4.3,7.9-2.6c6,3.3,10.5,8.1,15.3,13
	c4.9,5.1,6.7,11.1,9.3,17c2.5,5.5,0.9,9.7-4.9,11.6c-10.2,3.4-20.6,6.3-31.1,8.9c-12.2,3-24.5,5.7-36.8,8.3c-5.9,1.2-12,2.2-18,2.7
	c-9.7,0.8-19.5,0.9-29.3,1.6c-5.1,0.3-10.2,1.4-15.3,1.6c-10,0.5-19.8,3.4-30,2.9c-6-0.3-8.4-2.7-6.9-8.7c1.1-4.3,2.7-8.4,3.9-12.6
	c0.4-1.3,0.4-2.7,0.6-4.1c-0.4-0.2-0.9-0.3-1.3-0.5c-0.6,0.9-1.1,1.9-1.7,2.8c-2.1,3-4.1,6-6.3,8.8c-0.4,0.6-1.7,1.2-2.1,0.9
	c-6.9-4.6-7.5,2.3-9.6,5.5s-4.5,4.7-8.1,4.4c-3.9-0.3-6.3-2.1-5.7-6.4c0.5-3.6,1.1-7.2,1.9-10.7c2.1-9.6,4.3-19.2,6.5-28.8
	c3-13.1,6-26.2,9.2-39.3c3.8-15.6,7.7-31.2,11.4-46.8c2.2-9.3,3.3-19,6.6-27.9c3.7-10.1-0.1-19-2-28.2c-1.7-8.3-4.9-16.4-7.6-24.4
	c-1.1-3.2-1.5-5.4,2.8-6.6c3.9-1.1,7.3-4,11.3-5.1c10.5-2.8,21.2-4.7,31.6-7.6c13.8-3.8,27.8-2.3,41.6-2.4
	c14.4-0.1,28.9,1.7,43.3,2.8c18.7,1.4,36.6,6,53.9,12.9c6.8,2.7,13.1,7,15.7,14.4c1,2.7,0.8,6,0.6,9c-0.3,4.3,0.2,9.6-2.1,12.5
	c-5,6.1-8.9,13.8-17.3,16.5c-3.2,1-5.1,0-6-3.2c-0.1-0.3-0.2-0.7-0.2-1c-0.2-12.6-9.4-15.4-19.2-17.5c-9.9-2.2-19.6-5.2-29.6-6.4
	c-9.3-1.1-18.9-0.2-28.4-0.1c-11.6,0.1-22.6,3.1-33.7,6.1c-3.8,1-5.9,2.5-6.7,7.1c-2.4,13.6-5.8,27-8.8,40.6
	C253.1,109.6,253.3,110.8,253.3,112.7z"/>
<path d="M65.7,28.5c6.9-2.4,14.8-5.1,22.6-8c13.8-5,27.4-10.5,41.3-15.2c7-2.4,14.5-3.8,21.8-5.2c1.4-0.3,4.1,0.7,4.6,1.8
	c2.9,6,8.6,9.4,12.5,14.3c5.5,7.1,8.3,15.4,6.2,24.6c-0.9,3.8-0.8,8-4.6,10.5c-1,0.7-2.5,1.4-3.5,1.1c-0.9-0.3-1.7-1.9-1.8-3
	c-1.6-10.5-3.6-11.6-14-8.5c-5.8,1.7-11.9,2.3-17.9,3.6c-10.4,2.2-20.8,5-30,10.5c-6.1,3.6-11.5,8.1-17.3,12.1
	c-1.2,0.8-2.7,2-3.9,1.9c-6.8-0.6-11,4.3-16,7.2c-1.2,0.7-2.3,2.6-2.4,4.1c-0.5,6.4-0.6,12.9-1,19.3c-0.2,3.2,0.4,4.9,4.2,3.7
	c11.2-3.6,22.5-7.1,33.7-10.8c8.2-2.6,16.2-5.5,24.4-8.1c4.5-1.4,6.7-0.1,6.7,4.5c0,9.1,0.4,18.3-1.1,27.2
	c-0.7,3.9-0.8,7.7-1.3,11.5c-0.4,2.9-3.7,6.3-6.6,7.8c-7.4,3.8-15.7,6.2-23,10.1c-9.5,5-18.5,10.8-27.6,16.5
	c-4.5,2.9-8.7,6.4-13.1,9.5c-4.6,3.2-4,8.3-4.8,12.9c-1.7,9.9-2.9,19.9-5.9,29.4c-1.5,4.8-6.2,8.7-9.7,12.8c-2.5,3-5.2,5.9-7.9,8.7
	c-1.8,1.9-3.4,4.5-5.7,5.4c-5.2,2-7.4,6.1-9.4,10.5c-0.1,0.3-0.2,0.8-0.4,0.9c-5,2.6-7,7.5-9.7,12.1c-0.5,0.8-3.1,1.3-3.4,1
	C0.8,264,0,262.3,0,260.8c0-5.5,0.5-10.9,0.5-16.4c0-9.6-0.7-19.2-0.4-28.8c0.3-10.1,1.3-20.1,2-30.2c0.7-11.4,1.1-22.8,2.1-34.2
	c0.3-4.3,2-8.5,2.6-12.8c1.4-9.9,2.6-19.9,3.9-29.8c2-15.5,3.9-31,5.9-46.6c1-8,2.2-16,3.3-24c1.4-10.1,6.8-14,17-13
	c5.4,0.5,10.9,0.1,16.3,0.6C57.2,26.2,61.2,27.5,65.7,28.5z"/>
</svg>
