<?xml version="1.0" encoding="utf-8"?>
<!-- Generator: Adobe Illustrator 19.2.1, SVG Export Plug-In . SVG Version: 6.00 Build 0)  -->
<svg version="1.1" id="Layer_1" xmlns="http://www.w3.org/2000/svg" xmlns:xlink="http://www.w3.org/1999/xlink" x="0px" y="0px"
	 viewBox="0 0 608.4 227.2" style="enable-background:new 0 0 608.4 227.2;" xml:space="preserve">
<path d="M85.6,52.8c-0.4,2.9-0.9,5.8-1.3,8.7c-0.1,0.5,0.1,1.1-0.1,1.6c-2.3,9.6-1.3,19.5-2.1,29.2c-0.7,9.5-2.3,19-3.3,28.5
	c-0.8,8-1.2,16.1-2,24.1c-0.9,8.4-2,16.7-3,25c-0.3,2.5-0.1,5.1-0.3,7.7c-0.2,2.6-0.3,5.3-0.9,7.8c-0.5,2,0.3,2.5,1.9,2.4
	c2.4-0.1,4.9,0.1,7.1-0.7c3.2-1,4,0.8,4.5,3c1.3,6.4,2.4,12.9,3.7,19.4c0.4,2.1-0.8,2.5-2.3,2.8c-4.3,0.7-8.6,1.3-12.9,1.9
	c-10.5,1.5-21.1,2.7-31.6,4.5c-5.5,1-10.9,3-16.4,4.4c-5.2,1.3-10.4,2.4-15.5,3.8c-4,1.1-6.7-1.6-9.7-3.2c-0.6-0.3-0.7-1.7-0.8-2.6
	c-0.2-5.6-0.5-11.3-0.4-16.9c0.2-5.1,0.8-10.3,1.6-15.4c0.1-0.9,2.2-2.1,3.4-2.2c3.4-0.3,6.8-0.1,10.2-0.1c1.7,0,2.3-0.5,2.4-2.5
	c0.5-11,1.2-21.9,2.1-32.8c0.9-11.3,2.2-22.5,3.1-33.8c0.5-6.4,0.6-12.9,0.8-19.4c0.4-10.1,0.7-20.3,1.4-30.4
	c0.3-4.2,1.2-8.4,1.7-12.6c0.8-6.3,1.4-12.6,2.2-18.9c0.4-3.4-1.8-4.1-4.3-4.5c-4.2-0.8-4.9-2.1-3.6-6c0.5-1.4,0.3-3.1,0.6-4.5
	c1.1-5.3,0.1-11.1,3.5-15.7c0-1.2-0.5-2.8,0.1-3.4c0.9-0.9,2.5-1.5,3.8-1.5c3.6,0.2,7.1,1.1,10.7,1.2c6.6,0.2,13.3-0.2,20,0.2
	c4.9,0.3,9.7,1.4,14.5,2.1c9.2,1.4,18.3,3.6,27.5,4.2c9.8,0.6,14.4,7.1,19.1,14c1.4,2.1,2.5,4.5,3.6,6.9c1,2.1,1.6,4.2,2.5,6.3
	c1.7,3.7,3.5,7.4,5.1,11.1c0.9,2.2,1.4,4.6,2,6.9c0.2,0.7,0.4,1.5,0.7,2.1c2,4.2,4,8.3,6,12.5c1.5,3,3.1,5.9,4.5,8.9
	c1.3,2.8,2.4,5.7,3.5,8.6c1.6,4,3.1,8,5,12.9c1.4-2.9,2.5-5.1,3.6-7.3c3.6-7.5,7.2-15,10.9-22.4c3.3-6.5,6.9-12.9,10-19.5
	c2.2-4.6,3.8-9.5,5.7-14.3c2.2-5.9,4.4-11.7,6.6-17.6c0.8-2.2,4.6-2.9,6.3-1.2c0.3,0.3,0.6,0.7,0.9,0.7c4.4,0.3,8.9,0.5,13.3,0.8
	c3.3,0.2,6.6,0.3,9.9,0.7c6.7,0.8,13.4,2.2,20.2,2.4c9.2,0.3,18.5,0,27.8-0.4c4.8-0.2,9.2,3.1,9.4,8c0.3,5.3,0.6,10.7,0.6,16
	c0,1.4-1,3.5-2.1,3.9c-3.4,1.4-7.1,2.2-10.7,3.1c-0.9,0.2-1.8,0.2-3,0.2c-0.7,8.2-1.5,16.5-2.1,24.8c-0.9,12.2-1.8,24.5-2.6,36.7
	c-0.3,5-0.3,10.1-0.8,15.1c-0.7,6.6-2.1,13.2-2.5,19.8c-0.4,7.6-1.4,15.1-2.6,22.7c-0.9,5.6-0.9,11.4-1.3,17.1
	c-0.2,2.5,1.8,2,3.2,2.1c2,0.2,4.1,0.1,6.1,0.5c0.7,0.2,1.7,1.6,1.6,2.5c-0.3,6.5-1,13-1.2,19.4c-0.1,4-1.6,5.5-5.4,4.4
	c-1.9-0.6-3.2-0.4-4.6,1.1c-0.6,0.7-1.9,0.9-2.9,0.9c-7.1,0.1-14.3-0.3-21.4,0.1c-10.9,0.6-21.7,1.5-32.5,2.5
	c-3.8,0.3-5.8-1.1-5.9-5.1c0-5.7,0-11.5-0.1-17.2c0-1.2-0.1-2.4-0.5-3.5c-0.9-2.5,0-3.5,2.5-4c3.9-0.7,7.7-1.7,11.5-2.6
	c1.9-0.4,2.9-1.5,3.1-3.6c1-10.6,2.4-21.2,3.1-31.8c0.5-7.2,0.1-14.5,0.2-21.7c0.1-5.1,0.6-10.2,0.4-15.3
	c-0.3-8.5-1.3-17.1-1.6-25.6c-0.1-5.4,0.7-10.8,1.1-16.1c-0.3-0.2-0.7-0.3-1-0.5c-1,2.1-2.1,4.2-2.9,6.4c-1.3,3.3-2.3,6.7-3.7,10
	c-1.2,3-2.8,5.8-4,8.8c-2.7,6.8-5.3,13.7-7.8,20.5c-2.6,7-4.8,14.2-7.6,21.2c-3.6,9-7.7,17.7-11.5,26.7c-1.1,2.5-1.5,5.2-2.6,7.7
	c-3.3,7.9-6.7,15.9-10.3,23.7c-1.9,4.2-4.3,8.2-6.8,12.2c-1.3,2.1-3.3,2.9-5.8,1.1c-1-0.7-2.8-0.8-4.2-0.6c-5.4,0.6-10.7,1.6-16,2.1
	c-3.7,0.3-7.1-3.8-7.7-8.5c-0.8-6.3-1.7-12.5-2.5-18.8c-1.4-10.3-2.5-20.6-4.2-30.9c-2.3-13.7-5.1-27.4-7.5-41
	c-1.4-7.7-2.3-15.5-4.1-23.1c-2.5-10.4-5.5-20.7-8.5-31c-0.8-2.8-2.3-5.4-3.4-8.2C86.2,52.7,85.9,52.8,85.6,52.8z M237.8,86.5
	c-0.3-0.1-0.7-0.1-1-0.2c-0.4,2.6-0.7,5.2-1.2,8.7C238.7,91.9,237.8,89.1,237.8,86.5z"/>
<path d="M392.2,144.8c-11.6,1.3-22.7,2.7-33.8,3.9c-4.1,0.4-6.8,2.4-8,6.2c-1.5,4.7-3.3,9.4-5.1,14c-1.6,4-3.5,7.8-5.2,11.7
	c-1.3,3.1-0.7,3.9,2.6,4c0.8,0,1.7-0.2,2.5-0.4c1.9-0.3,3.3-0.1,3.2,2.3c-0.2,5.5-0.4,11.1-0.6,16.6c-0.1,2.3,0.2,4.7-0.1,6.9
	c-0.1,0.8-1.6,2.1-2.4,2.1c-6.7-0.3-13.3,0.9-19.7,2.6c-0.5,0.1-1.1,0.3-1.6,0.1c-5.3-1.8-10.6-0.4-15.9-0.2c-6,0.2-12,1.4-18.1,1.5
	c-2.2,0.1-4.6-1.5-6.7-2.7c-0.6-0.3-0.9-1.8-0.8-2.6c0.5-5.2,2.1-10.4,1.6-15.5s1.7-8.7,3.5-12.9c2.9-6.5,5.2-13.2,8-19.7
	c3.4-7.7,7.1-15.2,10.5-22.9c3.5-7.9,6.7-15.9,10-23.8c2.2-5.2,4.5-10.4,6.5-15.7c2.9-7.4,5.7-14.9,8.4-22.4
	c1.8-5.2,3.3-10.5,5.1-15.8c0.7-2.3,1.7-4.5,2.6-6.7c1-2.5-0.3-3.4-2.6-3.4c-2.2,0-4.4,0.2-6.5-0.1c-2.4-0.3-4.7-1-7-1.8
	c-0.7-0.3-1.5-1.4-1.5-2.2c-0.1-5.8-0.4-11.6,0.1-17.4c0.3-4.6,5.8-7.9,10.7-7.5c3.6,0.3,7.3-0.2,11-0.2c1.8,0,3.6,0.1,5.4,0.1
	c5.4,0.1,10.9,0.2,16.3,0.1c4.9,0,9.5-1.4,14.6,0.4c3.9,1.3,8.6,0.4,12.9,0.3c1.6,0,3.3-0.8,4.9-0.6c2.3,0.2,4.5,0.7,4.7,4
	c0.1,2.2,1.4,4.3,2.2,6.4c3.2,9.3,6.3,18.7,9.8,27.9c1.9,5.2,4.7,10,6.5,15.2c3.1,8.7,5.6,17.6,8.5,26.4
	c3.7,11.3,7.6,22.5,11.4,33.7c2.3,6.8,4.4,13.6,6.7,20.3c1.8,5.3,3.7,10.5,5.6,15.8c1,2.7,3.8,3.7,7.9,3.3c3.1-0.3,6.3-0.6,9.5-0.8
	c2.8-0.2,3.6,0.9,3.1,3.8c-0.7,4.3-0.8,8.7-1.1,13.1c-0.2,2-0.2,4-0.7,5.8c-0.3,0.9-1.5,2.1-2.3,2.2c-6,0.7-12,1.1-18,1.6
	c-0.9,0.1-1.8,0.7-2.8,1c-0.9,0.3-1.8,0.7-2.8,0.8c-13.1,0.5-26.3,0.9-39.4,1.5c-3.1,0.1-6.2,0.7-9.4,0.8c-1.8,0.1-2.3-0.7-2.2-2.9
	c0.1-5.7-0.4-11.5-0.9-17.2c-0.2-2.2,0.2-3.3,2.3-3.8c3-0.8,6-1.6,9.1-2.4c2.2-0.6,2.6-1.5,1.5-3.8c-2.2-4.7-4.1-9.6-6-14.4
	c-1.8-4.5-3.6-8.9-5.6-13.4C393.7,146.6,392.6,145.5,392.2,144.8z M367.7,113c10.1,0.7,17.9-3.3,24.5-10.5
	c-3.4-6.5-8.9-11.3-14.2-16.3c-1.1-1-2.8-1-3.6,1.1c-0.9,2.6-2,5.2-3,7.8C369.4,100.8,367.5,106.5,367.7,113z M306,179.3
	c-3.5,3-3.7,5.7-0.6,8.5c0.4,0.4,1.5,0.6,1.8,0.4c0.5-0.3,0.8-1.8,0.7-1.8C304.5,184.9,306.3,181.8,306,179.3z M402.3,113.7
	c2.2,0.5,3.9,0.8,6.1,1.3c-0.7-2.1-1.3-3.7-2.1-6.1C404.8,110.8,403.7,112.1,402.3,113.7z M408.9,168.1c1,2.4,2,4.9,3.1,7.8
	C413.6,172.7,412.4,169.7,408.9,168.1z M382.2,121.5c-0.7-3.2-3.9-3.2-7.4,0C377.3,121.5,379.6,121.5,382.2,121.5z M402.6,114
	c-1.6,1.3-2.7,2.1-3.7,2.9c1.1,0.7,2.1,1.3,3.7,2.3C402.6,117.1,402.6,116.1,402.6,114z"/>
<path d="M560.6,124.9c3.2,5.7,6.4,11.3,9.5,17c4,7.2,8,14.4,12,21.7c0.9,1.7,1.7,3.5,2.9,5c0.5,0.6,1.9,0.8,2.8,0.8
	c4.6-0.4,9.2-1.1,13.9-1.4c5.2-0.2,7.1,1.9,6.7,6.8c-0.5,5.7-1.2,11.3-1.6,17c-0.2,2.3-1.1,3-3.4,3.4c-7.3,1-14.4,2.4-21.7,3.5
	c-1.6,0.2-3.4-0.2-5.1-0.2c-3.6-0.1-7.3-0.4-10.9-0.1c-2.2,0.2-4.2,1.3-5.9,1.9c-1.3-0.8-2.4-1.7-3.6-2.2c-5.2-2.2-4.7-7.4-5.9-11.6
	c-0.6-2.1-0.4-4.5-0.2-6.7c0.1-1,0.6-2.5,1.4-2.8c2.7-1,5.5-1.5,8.6-2.3c-2.4-3.6-4.5-7-6.8-10.2c-3.2-4.4-6.6-8.7-9.9-13.1
	c-1.8-2.3-3.8-4.5-5.4-6.9c-2.2-3.3-3.8-6.9-6.1-10c-2.1-2.8-4.9-5.1-7.4-7.7c-0.4,0.2-0.8,0.4-1.2,0.6c-1.6,14.2-3.2,28.5-4.9,43.6
	c3.4,0,5.9,0,8.4,0c2.8,0,5.6,0,7.8,0c1.4,8.5,2.6,16.3,3.9,24.2c-4.4-3-9.1-1.4-13.7-1.2c-5.4,0.2-10.8,1.1-16.2,1.9
	c-4.7,0.7-9.4,1.6-14,2.8c-3.4,0.9-6.2-0.7-6.1-4.3c0.2-7.1,0.6-14.3,0.6-21.4c0.1-9-0.3-18,0.1-26.9c0.3-8.6,1.4-17.1,1.9-25.7
	c0.6-11.5,0.9-23,1.5-34.5c0.4-7.5,1-15,1.6-22.4c0.2-3.1-0.3-3.4-3.4-2.8c-1.6,0.3-3.5-0.3-5.2-0.7c-2.2-0.4-2-2.1-2.5-3.8
	c-0.6-2.1,0-3.9,0-5.8c0.1-5.9,0-11.8,0.1-17.7c0.1-4.7,0.5-4.8,4.7-5.6c4.8-0.9,9.5-2.3,14.3-3.2c3.8-0.7,7.7-1,11.6-1.4
	c6.6-0.7,13.1-1.5,19.7-1.8c11.2-0.5,22-0.1,32.6,5.2c5,2.5,10.2,4.5,14.8,7.8c6.1,4.4,12.3,8.6,16,15.4c2.8,5.1,6.2,10,8.3,15.3
	c2.3,5.9,1,12-1.2,17.8c-0.9,2.5-1.8,5-3.1,7.3c-2.1,3.6-4.4,7.1-6.8,10.5c-1.8,2.5-4,4.6-6.1,6.9c-6.3,6.8-13.8,11.8-22.5,15.1
	c-0.6,0.2-1.3,0.4-1.8,0.7C562.7,123.3,561.8,124,560.6,124.9z M529,64.6c0.3,4.4,0.7,8.8,0.7,13.2c0.1,4.4-0.2,8.8-0.3,13.2
	c0,4.2,0.5,5.1,4.4,5c6.4-0.1,12.7-0.3,19.2-2.3c8.8-2.7,14.9-7.6,18.9-15.3c2.2-4.2,2.6-6.9-1.1-10.2c-3.7-3.3-8.2-5-12.9-5.4
	c-6.1-0.6-12.4,0-18.4-0.9C535.2,61.2,532.1,62.6,529,64.6z M593.2,192.8c0-0.3,0-0.6,0-0.9c-2.5-0.2-4.9-0.5-7.4-0.6
	c-0.4,0-1.1,0.9-1,1.3c0,0.4,0.8,1.2,1.2,1.1C588.4,193.5,590.8,193.1,593.2,192.8z M512.4,176c1.9-1.8,2-5.4,0-8.5
	C512.4,170.7,512.4,173.2,512.4,176z M541.2,109.7c0,0.3,0.1,0.7,0.1,1c2.1,1.4,4,1.4,5.8-1.8C544.7,109.2,542.9,109.4,541.2,109.7z
	"/>
</svg>
