<?xml version="1.0" encoding="utf-8"?>
<!-- Generator: Adobe Illustrator 19.2.1, SVG Export Plug-In . SVG Version: 6.00 Build 0)  -->
<svg version="1.1" id="Layer_1" xmlns="http://www.w3.org/2000/svg" xmlns:xlink="http://www.w3.org/1999/xlink" x="0px" y="0px"
	 viewBox="0 0 353.1 199.8" style="enable-background:new 0 0 353.1 199.8;" xml:space="preserve">
<path d="M297.8,127.7c5.5,4.1,11.1,8.2,16.5,12.4c2.5,1.9,5.1,3.7,7,6c10.9,13.1,14.8,29.3,18.9,45.2c0.7,2.8-2.6,7.8-5.1,8.2
	c-2.9,0.5-5.8-2.6-5.8-6.5c-0.2-10.8-4.6-20.4-8.4-30.2c-3-7.8-9.3-12.4-15.7-16.9c-4-2.8-8-5.7-12.4-7.9c-3.7-1.9-7.9-3.5-12-4.1
	c-1.5-0.2-4.3,2.5-5,4.4c-1.7,5.1-3,10.5-3.8,15.8c-0.9,5.9-0.7,11.9-1.7,17.7c-1.6,9.7-7.2,17.7-12,26c-2,3.5-7.8,1.9-9.7-2
	c-2.6-5.1-0.9-10.1,0-15c1.6-9.1,4.1-18,5.4-27.1c0.7-5.3-1-10.9,0-16.1c2.4-13,6-25.8,8.7-38.8c1.3-6.2,1.5-12.6,2.1-19
	c1.2-13.2,0.7-26.5,4.9-39.5c2.1-6.4,2.5-13.6,5.9-19.7c2-3.7,4.6-7.1,7.2-10.4c1.8-2.3,4.3-2.4,6.4-0.2c2.8,2.9,6,3.1,10,3.1
	c16.6,0,32.1,3.1,43.2,17.2c5.7,7.2,11.1,14.8,10.6,24.3c-0.6,9.7-1.9,19.6-4.3,29c-1.9,7.1-5.4,14-9.3,20.3
	c-6.7,10.8-17,16.9-29.5,19.3c-3.8,0.7-7.5,2-11.2,3C298.3,126.7,298.1,127.2,297.8,127.7z M279.5,123.3c11.1-3.3,21.9-6.7,32.8-9.7
	c8.2-2.2,15.1-6.3,19.7-13.2c7.6-11.6,11.3-25,12-38.6c1-19.4-10-31.8-28.4-37c-6.4-1.8-13.3-1.9-20-2.3c-2.2-0.1-5.1,0.1-5.1,4
	c0,8.7-0.3,17.4-0.7,26c-0.1,2.8-0.9,5.5-1.3,8.3c-1,6.7-2.2,13.4-3.1,20.1c-0.7,5.4-0.8,10.9-1.6,16.3
	C282.6,105.8,281,114.4,279.5,123.3z"/>
<path d="M86.5,107.6c-5.6,5.4-11.9,2.6-17.5,2.9c-7.6,0.4-15.3-1.2-23-1.6c-1.4-0.1-3.7,1.3-4.1,2.5c-3.6,10-6.6,20.2-10.2,30.2
	c-2,5.5-4.7,10.7-7.2,16c-1.6,3.4-3.4,6.8-5,10.2c-2.6,5.3-5.9,10-12.2,11.4c-5.5,1.3-8-1-7.2-6.5c1.3-9.7,4.8-18.5,10.3-26.6
	c1-1.5,1.3-3.5,1.9-5.3c2.4-6.9,4.7-13.8,7.2-20.7c1.1-3.1,2.5-6,3.9-9c2.3-5,5.1-9.9,7-15.1c2.3-6.3,3.7-13,5.7-19.4
	c2.4-7.9,4.4-16.1,7.7-23.6C49,41.3,55.2,30.2,60.9,18.7c2.1-4.2,4-8.4,6.1-12.5c0.7-1.4,1.3-3.1,2.4-4.2c1.1-1,2.9-2.3,4.1-2
	s2.5,2.2,2.9,3.6c2,6.6,3.9,13.2,5.6,19.8c3.2,13,6.8,26,9.3,39.1c2.3,12.4,3.8,25.1,4.9,37.7c1.7,20,3.2,40,4,60
	c0.3,8.8-1,17.8-2.2,26.6c-0.3,2.5-2.5,5-4.3,7.1c-0.8,0.9-3.8,1.6-4.1,1.2c-1.2-1.8-2.6-4.1-2.5-6.1c1.1-14.9,3.4-29.8,3.7-44.8
	c0.3-11-1.8-22-2.9-33C87.7,110.3,87.1,109.3,86.5,107.6z M73.7,28.2c-0.6,0.1-1.2,0.2-1.8,0.3c-2.1,7.5-4.1,15.1-6.3,22.6
	c-1.5,5.2-3.5,10.2-5.2,15.3c-2.6,7.7-4.8,15.7-7.9,23.2c-3.8,9.1-4.1,8.9,5.7,10.8c1,0.2,1.9,0.7,2.9,0.7c6,0,12.1-0.1,18.1-0.3
	c2.4-0.1,4.9-0.4,7.5-0.7C83.1,76.7,82.4,51.7,73.7,28.2z"/>
<path d="M137.9,197.5c-5.9-6.1-2.9-13.2-2.2-19.7c0.6-6.5,2.7-12.8,3.5-19.3c1.5-13.4,2.3-26.8,5.8-40c2.5-9.8,2.4-20.2,3.4-30.4
	c0.3-3.3,0.8-6.6,0.8-9.9c0.1-7.2,0.2-14.4,0-21.5c-0.4-13,0.9-25.7,5.7-37.9c1.2-3,1.8-6.3,2.7-9.4c1-3.4,7.3-6.4,9.5-3.9
	c3.6,4,7.3,2.1,10.9,1.6c17-2,30.8,4.2,42.7,15.9c7.2,7,11.7,15.9,13.5,25.1c2.9,14.8,2.4,29.9-7.5,42.6
	c-6.4,8.3-12.8,17.3-21.1,23.4c-9.1,6.6-20.4,10.3-30.9,14.9c-3.3,1.5-7.3,1.4-10.7,2.6c-1.6,0.5-3.5,2.4-3.8,3.8
	c-1.3,8.8-1.5,17.7-3.2,26.3c-1.7,8.8-3.8,17.8-7.4,25.9C147.8,191.9,144.4,197.4,137.9,197.5z M168.7,17.5
	c2.1,35.9-6.5,69.7-6.5,104c11.4,0.3,21.2-4.7,31-9.3c9.6-4.5,15.8-13,22.2-20.9c3.1-3.9,5.6-8.5,7.6-13c3.7-8.3,2.4-16.8,1.9-25.7
	c-1.1-18.2-17.7-32.1-33.1-34.8C184.4,16.4,176.6,17.5,168.7,17.5z"/>
</svg>
