<?xml version="1.0" encoding="utf-8"?>
<!-- Generator: Adobe Illustrator 19.2.1, SVG Export Plug-In . SVG Version: 6.00 Build 0)  -->
<svg version="1.1" id="Layer_1" xmlns="http://www.w3.org/2000/svg" xmlns:xlink="http://www.w3.org/1999/xlink" x="0px" y="0px"
	 viewBox="0 0 687.5 362.6" style="enable-background:new 0 0 687.5 362.6;" xml:space="preserve">
<path d="M439.9,15.2c13.1,5.9,10.1,19.6,8.8,32.7c-1.7,16.7-8.3,33.6-14.5,49.2c-8.2,20.5-8.7,40.7-9.1,62.6
	c-0.2,9.5-0.3,19-0.5,28.6c-0.1,3.7-3.6,19.6-0.8,22.4c5.9,6,34.1-10.7,40-14.4c11.2-6.9,23.8-13.9,32-24c7.1-8.7,17.7-30.5-0.2-36
	c-9.8-3.1-32.8,19.9-8.6,19.9c0.5,12-16.5,13.9-22.2,5.1c-6.7-10.2,6-22.5,13.5-28.1c11.2-8.4,35.2-4.5,37.7,15.3
	c3.3,26.2-26.5,43.7-44.6,56c-10.1,6.8-20.8,11.8-32.1,16.4c-8.4,3.5-10.4,1.3-11.2,9.8c-0.7,7.8,4.1,17.1,4.9,24.9
	c1.2,10.8,3.8,19.2,11.7,27.3c6.1,6.3,15.6,14.9,24.6,15.9c23,2.4,29.7-25,35.3-41c9.5-27.2,16.9-54.9,26.7-81.8
	c10.5-29,19.9-58.2,18.5-89.4c-0.7-16.8-6-29.3-12.9-44.5c-2.1-4.6-19.3-38.4-1.9-25c8.5,6.5,16.6,26,20.1,35.8
	c6.1,17.2,6.4,35.4,7.6,53.4c19.7-24,31.2-49.8,56.2-69.2c16-12.4,43.8-24.5,60.7-6.4c13.8,14.8,8.9,49.1-10.7,58.6
	c-10.9,5.3-27.8,0.6-32-12.2c-4.5-13.8,11.2-27.4,21.5-14.1c-4.4,4.9-12.2-0.3-12.9,9.3c-0.4,5.9,7.9,11.8,13.8,11.8
	c19,0.1,24.1-33.2,15.3-45.6c-12.2-17.3-35-5.5-48.7,4.3c-7.4,5.2-14.2,10.7-20,17.8c-4.6,5.7-46.4,79.1-58.6,106.7
	c-5.4,12.2-10.9,23.6-14.7,36.5c-4.8,16.4-7.2,33.4-14,49.2c-5.1,12-8.7,27.9-16.9,37.9c-3.4,4.2-9.8,12.4-14,15.1
	c-2.5,1.6-6.4,2.3-9.1,3c4-1.1-11.4,1.9-9.1,2.1c-13.5-1.4-27.4-15.6-37.3-23.5c-4.7-3.7-8.3-4.5-11-10.2
	c-3.7-7.9-2.8-22.4-4.9-31.1c-4.1-17-5.1-27.1-25.5-21.9c-8.5,2.1-6.4,4.6-8.5,13.6c-1.9,8.2-6.2,14.6-9.1,21.9
	c-10.1,26.2-15.9,50.3-37.3,70.2c-7.3,6.8-22.8,19.6-34.5,10c-10.4-8.5-5.2-71.2-5.6-88.3c-0.1-5.2,1.6-40.3,0.5-49.1
	c-3.2-6.7-27.1,60-49.1,63c-10.7,1.5-43.7-114.9-50.8-138.4c-4.4,0.6-10.4,58.2-11.4,64.8c-3.8,23.9-19.2,100.4-20.7,106.9
	c-2.2,9.6-6.7,20.5-11.2,28.4c-11.8,20.6-31.4,42.9-56.1,32.5c-10.9-4.6-19.2-9.4-22-21.3c-2.4-10.2,7.1-24.6,15.2-30.8
	c8-6.2,26.2-8.1,26.8,6.9c0.5,14-10.6,1-15.2,1.1c-11.8,0.3-16.3,23.7-8.3,30.5c12.1,10.2,22.3,6.2,32.3-2.6
	c24.5-21.4,27.5-51.5,33.7-81.7c12.7-61.3,15-124.7,27.9-185.9c-30.2,0-57.9-17.1-88.6-12C73.7,68,48.1,76.3,30.9,93.6
	c-18.3,18.4-27.7,50.9,1.3,64.8c10.8,5.2,24.6,2.9,33.9-4.4c15-11.8,6.5-18.7-5.8-27c9-7.2,12.4-6.2,20.4,1.9
	c11.6,11.8,6.8,21.2-5.5,30.2c-21.3,15.8-51.2,19.7-67.5-5.7c-18.1-28.2-1.6-52.5,20.1-72.6c20.4-18.9,49.9-24.9,76.3-29.3
	c15.3-2.6,25.7,1.1,40.8,4.9c8.9,2.3,35.1,12.1,44,6.7c9.6-5.9,13.7-65,36.9-44.5c8.7,7.7,5,25.1,0.2,33.5
	c-7.5,13-19.4,15.1-20.4,32.4c-1.9,32,33.4,159.2,41.3,162.2c8,3.1,21.9-15.7,27-25c7.8-14.2,12.3-28.9,16.9-44.3
	c4.9-16.4,10.4-32.3,10.9-49.5c0.6-18.5,0.1-37.8,2.6-56.1c1.6-11.9,13.9-80.6,34.7-70.9c11.5,5.4-1.3,60.4-3.8,68.1
	c-9.6,30.1-20.7,61.6-22.5,93.1c-1.9,34-10,163,0,167.6c5.7,2.6,15.7-6,19.4-9.6c10.4-10.2,18.8-27.4,22.5-41.3
	c1.9-7.1,3.6-14,5.7-21.1c2.3-7.8,9.1-20.6,9.3-28.3c0.2-8.3,2.1-4.5-5.2-7.2c-3.5-1.3-9.8-0.1-11-4c-2.6-9,10.9-6.8,14.7-6.8
	c9.9-0.2,7.3,0.5,12.4-6.7c9-12.7,12.7-30.3,18.3-44.5c5.4-13.8,13.4-29.3,15.3-44C417.9,85.8,410.7,35.9,439.9,15.2
	C442.5,16.3,438.5,16.2,439.9,15.2z M334.8,17.3c-16,9.5-17.9,47.1-18.7,65.2C322.4,83.5,334,24.8,334.8,17.3
	C332.8,18.4,334.5,19.5,334.8,17.3z M408.6,175.5c-0.1,0-20.2,32.9-16.7,36.3c3.4,3.4,15.8,1,17.6-2.2
	C413.3,202.8,409.4,183,408.6,175.5C408.3,175.4,409,178.7,408.6,175.5z M440.3,28c-8.1-1.3-14.4,47.2-13.5,53.2
	C438.1,70,439.2,43.1,440.3,28C439.8,27.9,439.9,33,440.3,28z M209.2,50.2c9-5.7,13.4-17.3,9.1-22.8
	C213.7,34.6,210.1,41.9,209.2,50.2z"/>
</svg>
