<?xml version="1.0" encoding="utf-8"?>
<!-- Generator: Adobe Illustrator 19.2.1, SVG Export Plug-In . SVG Version: 6.00 Build 0)  -->
<svg version="1.1" id="Layer_1" xmlns="http://www.w3.org/2000/svg" xmlns:xlink="http://www.w3.org/1999/xlink" x="0px" y="0px"
	 viewBox="0 0 466.7 236.2" style="enable-background:new 0 0 466.7 236.2;" xml:space="preserve">
<path d="M410.6,103.6c0.3-1.6,0.8-3.2,0.8-4.8c-0.2-9.1-0.5-18.2-0.8-27.3c-0.3-11-0.6-22-0.7-33c0-8.8,0.5-17.5,0.5-26.3
	c0-4,2.6-5,5.5-5.4c6.2-0.9,12.5-1.5,18.8-2.1c6.9-0.7,8.1,2.1,13.2,7.8c8.1,9.1,10.2,21.1,17,30.8c3,4.2,1.3,11.9,1.4,18
	c0,4.6-0.6,9.3-0.8,13.9c-0.4,8.9-0.8,17.8-1.2,26.7c-0.2,3.7-0.7,7.4-0.8,11c-0.2,16.8-0.1,33.6-0.4,50.4
	c-0.1,9.4-0.6,18.9-1.3,28.3c-0.5,7.7-2.1,15.3-2.2,23c0,5.4-2.6,7.2-6.9,7.5c-9.2,0.6-18.4,1-27.6,1.1c-6.6,0.1-7.8-1.5-10.2-7.5
	c-2.5-6-5.1-12.2-11.8-15.4c-1.9-0.9-2.6-4.6-3.4-7.2c-2.5-7.7-4.8-15.4-7.1-23.1c-0.6,0.1-1.2,0.2-1.8,0.2c-0.4,4.3-0.5,8.7-1.3,13
	s-2.9,8.6-3,12.9c-0.2,7-2.3,14.1-0.1,21.2c0.8,2.8,0.5,5.9-3.5,6.2c-4.7,0.3-9.5,0.7-14.3,0.6c-5.1-0.1-10.2-0.8-15.4-0.9
	c-3.3-0.1-4.8,1.3-2.7,4.7c0.6,0.9,1.1,2.1,1,3.1c-0.2,1.8-1,3.4-1.6,5.2c-2.1-1.1-5.1-1.6-6.3-3.3c-5.9-8.2-11.2-16.8-16.8-25.2
	c-1.9-2.8-6.4-3.8-5.4-8.4c0.4-1.9,1-3.8,1.1-5.7c1.3-17.1,2.7-34.3,3.9-51.4c1.5-21.4,2.9-42.8,4.2-64.2
	c0.7-11.7,1.6-23.4,1.9-35.2c0.2-7.3-0.6-14.7-0.8-22.1c-0.1-4.2,3.2-7,7.4-7.5c8-0.9,15.8-2.4,23.8-3.3c3.8-0.4,6.2,1.7,7.4,5.3
	c0.9,2.9,2,5.7,3.3,8.4c5.2,11.1,10.7,22.2,15.7,33.4c5.5,12.2,10.7,24.6,16,37c1.4,3.3,2.8,6.5,4.1,9.8
	C409.8,103.6,410.2,103.6,410.6,103.6z M445.5,22.5c-0.6,0.1-1.3,0.3-1.9,0.4c0,11,0.3,22-0.1,32.9c-0.3,10.2-1.7,20.4-2,30.6
	c-0.4,12.6,0,25.2-0.1,37.8c-0.2,11.4-0.5,22.7-1,34c-0.4,7.7-1.5,15.4-1.8,23.2c-0.2,4.9-1,10.5,0.9,14.6
	c2.3,4.8,7.2,8.3,11.4,12.8c0.6-2.1,1.4-3.6,1.5-5.1c0.5-6,1.1-12.1,1.3-18.1c0.5-14,0.7-28.1,1.1-42.1c0.3-13.1,0.4-26.2,1-39.2
	c0.7-15.2,1.6-30.3,3-45.4c0.8-8.8-5-15.2-7.2-23C450.3,31.3,447.6,27,445.5,22.5z M376.7,201.2c1-1.5,2.1-2.5,2.3-3.6
	c1.3-7.6,2.5-15.2,3.6-22.9c0.6-4.3,0.1-9.1,1.8-13c1.9-4.4,1.3-8.2-0.1-12.1c-1.3-3.5-2.9-6.9-4.7-10.2c-1.7-3.3-3.8-6.3-5.7-9.5
	c-0.5,0.2-0.9,0.4-1.4,0.6c0,3.5,0.1,7,0,10.5c-0.2,3.8-0.5,7.5-0.9,11.3c-0.6,6.4-1.3,12.8-1.8,19.3c-0.4,4.8-0.9,9.5-1.1,14.3
	c-0.1,1.7,0.4,3.7,1.3,5.2C371.7,194.3,374,197.3,376.7,201.2z M332.7,201.1c2.8,4,4.2,7.5,6.8,9.4c3.2,2.3,8.2,5.2,10.9,4.1
	c6.9-2.9,12.9,0.5,19.2,0.6c2.3,0,4.5,0.5,8,0.8c-4.2-6.3-7.3-11.1-10.7-15.7c-0.6-0.9-2.1-1.7-3.1-1.7c-5.6,0.2-11.1,0.7-16.7,1.1
	C342.5,200.1,338,200.6,332.7,201.1z M418.3,203.8c5.7,11.3,13.3,14.2,23.7,9.4C437.3,200.8,428.6,198.7,418.3,203.8z"/>
<path d="M246.5,102c0-13.8,0.4-27.5-0.1-41.3c-0.4-11.6-1.7-23.2-2.8-34.8c-0.3-3.4,0.2-5.5,3.9-6.7c7-2.3,13.8-5.3,20.8-7.7
	c2.8-1,5.4-1.2,7.4,2.6c5.6,10.6,12,20.8,17.4,31.4c2.8,5.5,5.3,10.9,9.5,15.7c2.2,2.5,0.8,8.2,0.7,12.5c0,2.6-1,5.2-1,7.8
	c0,12.2,1.1,24.5,0,36.5c-1.1,12.4-3.1,25-6.9,36.8c-4.9,15.5-12.1,30.2-24.8,41.4c-5.1,4.5-10.1,9.3-15.6,13.4
	c-2.8,2.1-6.5,2.9-9.7,4.4c-6,2.8-11.9,6-18.1,8.4c-5.2,2-9.7,0.4-13.9-3.6c-10.1-9.6-20.4-19-31-28c-7-6-10.2-13.7-12.2-22.3
	c-3.7-15.8-4.8-32-4.7-48.1c0.1-18.5,1.4-37,1.8-55.5c0.2-10.1-0.5-20.1-0.7-30.2c-0.1-5.1-0.4-10.1,0-15.2c0.1-1.5,1.9-3.6,3.5-4.2
	c5.6-2,11.4-3.5,17.2-5.2c5.9-1.7,9,0.9,11.3,6.4c3.1,7.2,7.4,13.9,11.3,20.8c3.4,6.1,7,12.1,10.5,18.2c0.4,0.7,0.9,1.7,0.6,2.2
	c-3.6,7.4,0.1,15-0.5,22.5c-0.8,11.6-0.9,23.2-0.5,34.8c0.3,11.7,1.4,23.4,2.4,35.1c0.4,4,2.7,4.4,6.1,1.5
	c9.6-8.3,15-18.7,15.7-31.5c0.3-6.1,1-12.2,1.5-18.3C246.1,102,246.3,102,246.5,102z M208.5,198.4c0.1,1.1-0.1,2.2,0.4,2.6
	c3.6,3.4,7.1,7,11.1,10c1.8,1.4,4.9,2.7,6.7,2.1c13.4-4.7,26.3-10.3,36.5-20.7c7.9-8.1,14.7-16.7,18.9-27.4
	c3.9-9.9,8.2-19.6,9.2-30.4c0.6-6.3,1.5-12.5,2.2-18.7c0.5-4.7,1.2-9.4,1.3-14.1c0.2-5.6-0.6-11.2-0.1-16.8c0.7-7.7,0-15-3.2-22.1
	c-2.5-5.5-4.5-11.2-7.1-16.7c-1.7-3.7-3.9-7.1-5.9-10.6c-0.4,0.2-0.9,0.4-1.3,0.6c0.4,8,0.9,16.1,1.3,24.1
	c0.2,5.1,0.6,10.2,0.4,15.3c-0.2,5.5-1.1,10.9-1.4,16.4c-0.3,7.7-0.1,15.3-0.4,23c-0.4,14.1-2.8,27.9-8.8,40.7
	c-7.6,16.3-18.1,30-35.7,37.2C225.1,195.9,217.5,198.5,208.5,198.4z M213.5,160.1c0-6.5,0.2-12.5,0-18.5
	c-0.4-12.2-1.3-24.5-1.6-36.7c-0.3-15-0.1-30.1-0.4-45.1c-0.1-7-3.7-12.6-9.2-17.1c-0.4,2,0,3.8-0.1,5.6
	c-0.6,12.2-1.3,24.5-1.8,36.7c-0.4,10.5-1,21-0.8,31.5c0.2,11.4,1,22.8,1.9,34.2C202.2,160.3,204.3,161.7,213.5,160.1z"/>
<path d="M49.9,161.2c2.9-4.6,6.2-8,7.2-12c2.4-9.5,4.1-19.2,5.4-29c1.7-12.9,2.9-25.9,3.9-38.9c0.6-8.9,0.4-18,0.5-26.9
	c0.2-12.3,0.5-24.7,0.6-37c0.1-3.6-0.3-7.1,0-10.7c0.3-4.2,3.3-4.6,6.9-4.3c3.5,0.3,7.1,0.3,10.6-0.1c4.3-0.5,8.6-1.9,12.9-2.3
	c1.6-0.1,3.7,1.2,5,2.5c8,7,13.3,16.1,18.9,24.9c1.9,2.9,3.8,5.7,5.8,8.5c4.1,5.9,2.8,12.5,2.5,19c-0.4,9-1.3,17.9-2.1,26.9
	c-0.8,10-1.5,19.9-2.7,29.8c-0.7,5.3-2.5,10.5-3.6,15.8c-1.1,5.7-1.4,11.7-2.9,17.3c-1.3,4.6-3.9,8.8-5.7,13.3
	c-0.7,1.7-0.6,3.6-1.1,5.4c-0.7,2.4-1.2,5-2.4,7.2c-2.6,4.8-3.3,10.5-8.5,14c-2.5,1.7-3.2,5.8-5.1,8.4
	c-8.9,11.7-20.9,19.7-32.9,27.6c-2.7,1.8-5.7,3.2-8.7,4.6c-6.3,2.8-11.6-0.8-17.2-2.8c-1.9-0.7-3.8-1.6-5.7-2.4
	c-0.6-0.3-1.5-0.5-1.7-0.9c-3.9-9.6-14.1-12.4-20.6-19.1c-0.6-0.6-1.4-1.1-1.5-1.8c-2.5-10-5.9-19.8-7.1-29.9
	c-1.2-9.6-0.2-19.4,0.1-29.1c0.1-2.9,5.6-6.2,8.5-4.6c5.3,3,10,0.7,15.1,0c3.7-0.6,6.7-1.4,9.3,3.7
	C37.7,146.2,43.9,152.9,49.9,161.2z M104.3,16.1c-1,1.8-1.7,2.6-1.8,3.5c-0.3,8.2-0.8,16.4-0.7,24.7c0,12.6,0.5,25.3,0.5,37.9
	c0,5.8-0.6,11.6-0.8,17.4c-0.3,7.4,0.4,14.9-1,22.1c-3.8,19.6-6.3,39.5-20.7,55.7c-6,6.7-12.4,12.3-19.9,17s-15.7,7.5-24.5,8.5
	c-1.1,0.1-2,1.2-3.1,1.9c0.7,1,1.4,2.1,2.3,2.8c2.6,2.2,5.6,4,7.8,6.5c3.1,3.8,6.6,4.3,10.5,2.3c3.8-1.9,7.2-4.5,10.7-6.8
	c12.7-8.2,23.8-17.8,32.4-30.5c8.2-12.1,7.7-26.8,13.5-39.7c3.9-8.8,4.9-18.8,6.9-28.4c1.3-6.2,2.4-12.6,3-18.9
	c0.9-11.3,1.4-22.6,2-33.9c0.3-5.9,1.2-11.9-2-17.5c-1.9-3.2-2.9-6.8-4.9-9.9C111.4,25.9,108,21.4,104.3,16.1z M31.7,151.1
	c1.1,12,3,14.8,10.5,14.8C38.7,161,35.5,156.5,31.7,151.1z"/>
</svg>
