<?xml version="1.0" encoding="utf-8"?>
<!-- Generator: Adobe Illustrator 19.2.1, SVG Export Plug-In . SVG Version: 6.00 Build 0)  -->
<svg version="1.1" id="Layer_1" xmlns="http://www.w3.org/2000/svg" xmlns:xlink="http://www.w3.org/1999/xlink" x="0px" y="0px"
	 viewBox="0 0 613.1 417.9" style="enable-background:new 0 0 613.1 417.9;" xml:space="preserve">
<path d="M144.8,288.7c-9.2,4,7.4,73.3-8.5,66.6c-5.7-2.4-5.3-23.8-5.3-29.1c-0.1-15.5,0.3-31.3-0.2-47c-1-29-4.1-58-8.4-86.7
	c-1.7-11.3-4.1-23.4-6.9-34.7c-5.5-22.3-8.3-5.6-18.9-1.1c-0.7-7.5,11.4-16.4,15.5-21.4c6.3-7.6,19.9-26.2,1.7-26.2
	c-8.3,0-22.5,6.3-30.7,8.9c-13.4,4.4-26.9,7.8-40.5,11.9c-10.1,3-19.7,7.9-29.9,10c-5,1.1-14.7,7.9-12.4-5.2c1-5.3,3.3-5.4,7.3-8
	c13.3-8.6,35.7-13.1,50.9-16.1c19.5-3.8,39-6.8,58.7-12.1c9.3-2.5,20.5-7.5,29.6-8c5.3-0.3,13.1,2.2,16.8,1.6
	c3.3-0.5,12-6.8,17.1-8.2c9.4-2.6,19.4-4,28.9-6.2c5.9-1.3,59-10,59.8-13.6c2.4-10.8-71,7.2-75.4,8.6c-24.8,7.6-51.2,11.4-76.7,17.8
	c-21.4,5.4-41.9,7.7-63.5,10.8c-12.3,1.8-27,5.3-39.5,4.3c-23.8-1.9-2.5-11.3,10.3-13c49.8-6.6,98.2-13.1,147.8-24.1
	c22.8-5.1,45.5-12.3,68.5-16.2c8.3-1.4,31.1-5.9,37.7,0.1c3.7,3.4,4.5,20.9,1.1,24.3c-3.9,4-29.5,1.7-36.7,3.1
	c-13.3,2.6-27.1,6.2-40.6,9.4c-14.4,3.5-63.9,6.6-66.3,21.2c-1.3,7.9,5.7,22.1,7.2,30.3c2.9,15.9,6.5,31.9,8.9,47.9
	c3.8,24.9,5.4,49.9,8,74.9c3,29.1,5.9,58.2,6,87.4c0,12.9,0,25.5,2.5,38.3c1.1,5.8,8.5,31.5-5.3,19.4c-10.4-9.2,1-18.7-11.9-8.1
	c-10,8.2-14.8,18.5-30.1,17.3c-21.7-1.7-28.2-26.1-34.9-42.9c-9.9-24.8-18.2-46.8-19.1-73.4c-0.3-8.7-5-36,10-37
	c8.9-0.6,13.7,21.5,15.8,27.8c6.6,19.5,16.8,86.3,48,77.4C165.8,362.9,150.6,304.4,144.8,288.7C142.7,289.7,145.4,290.4,144.8,288.7
	z M126.2,406.9c6.8-1.5,14.3-7.2,17.6-13.6c6.2-11.7,4.1-7.2-1.6-11.3c-1.7-1.2-13.6-2.1-15.3-2.7c-9.8-3.4-15.6-9.3-20.2-18.5
	C99.8,347,95.8,331,90.9,316.4c-1.6-4.7-6-27.3-12.7-27.5c-7.5-0.2,10,62.6,11.9,68.4C97.1,378.9,101.6,402.4,126.2,406.9
	C128.1,406.5,121.8,406.1,126.2,406.9z M126.1,127.1c-6.9,24.8,6.2,58.7,9.2,84.7c1.9,16.9,4.2,34.3,5.8,51.4
	c0.3,3.1-1.2,13.3,0.4,14.9c9,8.7,8.6-3.3,9.4-6.6c3-11.4-2.1-31-4.1-42.6c-2-11.7-3.6-23.5-5-35.4c-1.3-10.8-3.8-21.4-5.3-32.1
	C135.8,156.7,133.9,128.2,126.1,127.1C125.9,128,130.9,127.8,126.1,127.1z"/>
<path d="M490.2,77.4c-3.9,0.3-4.1-35.9-4.2-41.9c0-5.2,1.2-11.5,0.7-16.6c-0.3-3-3.6-8.2-3.2-11c0.4-3.3,3.9-3,2.5-7.9
	c10.3-0.2,16.3,153,17.5,172.5c1.7,29.7,2.5,59.5,2.3,88.7c0,2.4-0.3,5.6-0.3,8c-0.1,5.1,0.2,10.3,0.1,15.4
	c-0.4,10.9-10.4,41.4-5.3,50.3c4.1,7.1,21.7-7.2,30.8-10.4c16.9-5.9,28.6-13.5,43.4-23.1c7-4.6,10.7-8.6,16.7-1.9
	c5.2,5.7,4.9,7.5-0.2,11.9c-3.6,3.1-12.8,3.5-17.7,5.8c-10.2,4.8-19.1,11.7-29,16.8c-11.6,5.9-23.5,10.9-35.1,16.6
	c-4.7,2.3-10,6.6-15.1,8.2c-10.3,3.3-18.5-2.4-23.6,8c-2.2,4.4-3.8,19.1-2.6,24.2c1.7,7.6-0.7,5.6,7.1,6.9c9,1.6,24.7-8.6,32.3-12.9
	c23.5-13.5,47.3-29.6,68.2-46.4c6.4-5.1,20.9-25.4,27.6-27.4c17.3-5.2,8.9,23.8-1.5,24.9c6.2-26-28,10-35.7,16
	c-17.3,13.5-35.5,27.7-52.4,40.9c-10.5,8.2-26.1,15.5-39.2,18.4c-15.6,3.5-17.5-4.6-17.2-18c0.5-24.7,6.8-49.5,9.6-74.3
	c4.8-41.2,10.3-93.6,5.2-130.5c-2.8-19.9-0.8-40-3.8-60.3c-1.5-10.3-4-19.1-5.5-29.5s-9.5-25.7,6.1-24.4c-1-6.6-5-27.1,6.9-23.7
	c6,1.7,5.5,25,6,29.8c3.3,31.5,6,63.7,7.7,95.3c1.5,29,0.5,58.1-0.4,86.9c-0.5,15.7-2.2,31-3.6,46.6c-0.8,8.8-6.4,29-2.3,36.2
	c7.7-5.5,8-28.1,8.9-37.1c0.8-7.6,3.5-16.6,4-23.9c1.8-25.8-0.6-53.5-1-79.6c-0.4-21.9-1.6-42.5-3-63.9
	C490.5,121.6,485.1,96.5,490.2,77.4C489.2,77.4,489.8,78.8,490.2,77.4z"/>
<path d="M329.4,59c5.5,4.4,0.1,34.1-0.3,41c-0.9,16.2-1.3,32-0.4,48.2c2.1,36.7,0.6,73.7,5.7,109.9c1.8,12.8,21.3,106.4,41.5,96.9
	c7.6-3.6,10.7-36.7,12.5-45.3c2.2-10.7-3-40.5,3.8-45.9c-3.8-7-2.5-24.9-4.3-35.9c-3.1-19.4-1.5-38.9-4.5-57.8
	c-2.7-16.8-3.2-34.3-7.8-50.8c-2.2-7.8-7.7-10.6-5.2-17.6c4.9-13.5,10.1,2.4,13,8.7c6.8-11.2-7-23.5-3.5-34.4c5-15.6,10,2.3,12,9.3
	c7.6,26.6,6.1,54.8,9.1,82c5.7,52.3,13.1,103.2,0,154.4c-5.5,21.4-15.5,47.5-30.7,65c-23.5,27.1-35.7-0.9-42-22.5
	c-15.3-52.8-19-104.3-21.3-158.7c-1.1-25.4,0.2-50.1,2.4-75.5c1-11.2,1.1-21.9,3.2-32.7C316.2,79.2,311.3,66.8,329.4,59
	C332.7,61.6,326,60.5,329.4,59z M342.5,326c-6.2,1.5-19.2-91.6-19-100.2c0.3-10.9,0.4-93.3-4.7-92.8c-5.6,65.8-3.8,132.6,11.5,196.9
	c2.7,11.3,5.1,23.7,8.9,34.7c3.6,10.6,21.1,37.8,28.8,9.5c2.8-10.2-6-14.6-12.1-23.1C350,342.8,346.8,335.5,342.5,326
	C342.6,326,343.4,327.9,342.5,326z"/>
</svg>
