<?xml version="1.0" encoding="utf-8"?>
<!-- Generator: Adobe Illustrator 19.2.1, SVG Export Plug-In . SVG Version: 6.00 Build 0)  -->
<svg version="1.1" id="Layer_1" xmlns="http://www.w3.org/2000/svg" xmlns:xlink="http://www.w3.org/1999/xlink" x="0px" y="0px"
	 viewBox="0 0 643.8 229.5" style="enable-background:new 0 0 643.8 229.5;" xml:space="preserve">
<path d="M637.1,83c-25.6,36.5-51-5-92.5,14.9c-64.7,31-25.7,79.1-16.9,73c8.9-6.1-19.3-33.7,10.1-51.9c35.8-22.2,64.8-6.5,78.4,10.2
	c26.4,32.6,3.2,81.9-53.5,97.4c-57.9,15.8-154.3-32.5-117-141.3C498.4-68.6,680.8,20.7,637.1,83z"/>
<path d="M277.8,0.1c37.3,0,41.6,93.9,60.7,93.9c34.1,0-0.5-93.9,55.8-93.9c55.8,0,45,227-85.6,227C203.6,227,200.4,0.1,277.8,0.1z"
	/>
<path d="M108.7,0.1C11,2.3-30,204.8,23.9,223.9c60.4,21.4,81.6-74.6,100.5-60.2c9.8,7.5,1.6,58.7,44.5,60.4
	C245.4,227.1,222-2.5,108.7,0.1z M106.7,94c-11.9,0-21.5-9.6-21.5-21.5S94.8,51,106.7,51c11.9,0,21.5,9.6,21.5,21.5
	S118.6,94,106.7,94z"/>
</svg>
