<?xml version="1.0" encoding="utf-8"?>
<!-- Generator: Adobe Illustrator 19.2.1, SVG Export Plug-In . SVG Version: 6.00 Build 0)  -->
<svg version="1.1" id="Layer_1" xmlns="http://www.w3.org/2000/svg" xmlns:xlink="http://www.w3.org/1999/xlink" x="0px" y="0px"
	 viewBox="0 0 454.7 227" style="enable-background:new 0 0 454.7 227;" xml:space="preserve">
<path d="M116,151.9c-1.4-3.4-2.1-8.8-5.4-12.9c-7.1-9-15.7-17.3-23.4-26c-5.2-5.8-9.9-12-15-17.9c-4.2-4.8-8.8-9.5-12.7-14.5
	c-8.8-11-17.4-22-22.1-34.5c-4-10.5-2.3-19.6,8.8-27.8c11.5-8.5,25.3-11.6,39.9-14c5-0.9,9.9-1.9,14.8-2.9c1.1-0.2,2.2-0.7,3.3-0.7
	c11.4,0.2,23-1.8,34.2,1c7.1,1.8,14,4.1,21.2,5.8c5.3,1.2,10.9,1.9,16.4,2.4c3,0.2,5.7,0.5,5.6,3c-0.1,2.6-3,3.1-5.8,3
	c-11.3-0.4-21.9-2.4-32.3-6.2c-8-2.9-17-3.5-26-2.1C111.9,8.4,106,8,100.4,9.1c-7.6,1.4-14.9,3.7-22.4,5.4
	c-4.5,0.9-8.9,1.8-11.1,5.1c-2.6,4-5.2,8-6.4,12.3c-2.5,9-3,18.2,2.6,26.8c4.1,6.4,8.3,12.9,13.3,18.9c8.2,10.1,16.9,19.8,25.6,29.5
	c7.1,8,15.1,15.6,21.7,23.9c3.4,4.3,6.5,8.8,7.4,14.3c1.5,9.6-1.3,18.1-7.3,26.1c-5,6.9-10.3,13.6-16.1,20.1c-2.4,2.7-6.2,5-9.9,6.9
	c-9,4.4-18.1,8.8-27.6,12.6c-2.7,1.1-6.8,0.2-10.2,0.4c-14.1,0.9-26.7-2.4-38.5-7.9c-2.3-1.1-4.5-2.3-6.4-3.9
	c-6.7-5.4-13.5-10.7-15-18.6c-0.5-2.7,1.4-4.7,4.6-5c1.6-0.2,4,1,5.1,2.2c1.3,1.3,1.4,3.3,2.4,4.9c3.6,6.1,10.2,9.2,18.4,10.6
	c6.2,1,12.3,2.3,18.6,2.8c12.4,1.1,23.9-1.2,34.3-6.5c6.1-3,12.8-5.7,17.9-9.6C110.6,173.2,113.2,163.4,116,151.9z"/>
<path d="M384.3,9.7c17-0.9,32.2,1.6,44.8,9.4c8.4,5.1,15.1,11.8,19.4,19.7c6.5,11.9,8,24.5,4.1,36.9c-1.8,5.7-6.3,10.9-9.4,16.4
	c-4,6.9-9.1,13.1-16.2,18.3c-8.4,6.1-16.8,12-27.2,16.3c-10.5,4.3-21.3,3.4-32,4.4c-7.2,0.7-14.5,1.2-21.7,1.3
	c-3.1,0.1-6.3-0.7-9.5-1.2c-5.2-0.9-7.1,0.5-7.8,4.4c-1.3,8.1-2.8,16.2-4.7,24.2c-1,4.3-3.4,8.4-4.5,12.7
	c-1.3,5.1-1.5,10.2-2.8,15.3c-2.4,9.9-5.3,19.6-7.9,29.5c-0.5,1.9-0.5,3.8-1.4,5.6c-1.1,2.1-1.8,5-6.3,3.9c-3.5-0.9-5-3.6-3.9-6.4
	c2-5.2,3.8-10.5,5.6-15.7c1.5-4.6,2.9-9.3,4.1-13.9c1.8-7.5,3.4-15,5-22.4c1.5-6.9,2.7-13.6,4.2-20.5c1.8-8,3.6-16,5.7-23.9
	c1.6-6.1,5.1-12.1,5.2-18.2c0.1-6,4.1-11,4.8-16.8c0.6-4.5,3.1-9,3.9-13.5c2.2-11.1,4-22.4,5.7-33.6c0.9-6.2,1.5-12.5,1.9-18.7
	c0.2-2.7,1.1-4.5,4.5-5.7C360,13.3,371.9,9.3,384.3,9.7z M333.4,123c5.6-0.5,10.3-0.5,14.9-1.2c15.9-2.3,32.5-2.1,47.5-7.6
	c4.4-1.6,8.7-3.4,12.5-5.7c8.9-5.2,14.9-12.5,20.4-19.8c6.2-8.3,12.1-16.8,11.3-26.9c-0.4-5.4-1.4-10.8-2.1-16.1
	c-0.1-0.4-0.4-0.7-0.6-1c-5.4-6.2-10.2-13.1-19.2-16.6c-9.1-3.5-18.6-6.7-28.4-8.8c-5.8-1.2-12.5-0.8-18.6-0.1
	c-5.3,0.6-10.3,2.7-15.3,4.4c-1.3,0.5-2,2.3-2.5,3.5c-0.5,1.4-0.5,3-0.7,4.4c-1,6.5-2.1,13-3,19.6c-1.2,8.2-1.5,16.5-3.4,24.6
	c-3,12.8-7,25.4-10.5,38C334.8,116.6,334.2,119.5,333.4,123z"/>
<path d="M293.4,80.3c-2.4,2.6-4.7,3-9.1,2.2c-8-1.5-16.4-1.3-24.7-2.1c-6.9-0.7-13.7-1.9-20.6-2.7c-5.9-0.5-11.9-0.7-17.8-0.9
	c-0.6,0-1.3,0.3-1.9,0.3c-7.6-0.1-8-0.1-8.8,5.8c-1.3,9.3-1.9,18.6-3,27.8c-0.6,5.8-1.5,11.5-2.3,17.2c-0.5,3.5-1,7-1.6,11
	c12.6,0.9,24.9,3.8,37.7,1.6c3.8-0.6,6.6,0.8,7.1,3.4c0.6,2.9-2.2,4.6-5.9,4.5c-8.4-0.2-16.9-0.5-25.3-0.9
	c-3.9-0.2-7.8-0.7-11.7-1.1c-2.6-0.2-4.4,0-4.8,2.6c-1.9,10.7-4.1,21.3-6,32c-1.8,10.1-3.3,20.3-5,30.6c-0.5,3,2.2,2.9,4.5,2.5
	c6-0.9,11.8-2,17.8-3c9.4-1.6,18.8-3.1,28.3-4.6c1.3-0.2,2.7,0,4,0c3,0,6,0.3,5.6,3.4c-0.4,3-2.8,4.4-6.6,4.6
	c-6.4,0.4-12.7,0.7-19,1.5c-5.5,0.7-10.8,2.3-16.3,3c-9.3,1.3-18.7,2.6-28.1,3.6c-4.8,0.5-7.2-2.4-6.5-6c2.2-10.5,4.1-21,6.1-31.6
	c2-10.4,3.9-20.9,5.8-31.3c0.8-4.4,1.4-8.9,2.2-13.3c0.8-4.4,2.1-8.7,2.9-13c1.3-7.1,2.7-14.2,3.4-21.4c1.1-10.7,1.3-21.4,5.4-31.7
	c2.2-5.6,5.9-7.1,13-6.1c5.3,0.8,10.7,1.3,16.1,1.9c10.3,1.2,20.6,2.5,30.9,3.5c7.2,0.8,14.6,0.8,21.7,1.9
	C285.6,75.9,291,75.6,293.4,80.3z"/>
</svg>
