<?xml version="1.0" encoding="utf-8"?>
<!-- Generator: Adobe Illustrator 19.2.1, SVG Export Plug-In . SVG Version: 6.00 Build 0)  -->
<svg version="1.1" xmlns="http://www.w3.org/2000/svg" xmlns:xlink="http://www.w3.org/1999/xlink" x="0px" y="0px"
	 viewBox="0 0 490 490.2" style="enable-background:new 0 0 490 490.2;" xml:space="preserve">
<style type="text/css">
	.st0{opacity:0;fill:#3FFFA6;}
	.st1{fill:#FFFFFF;}
</style>
<g id="Layer_2">
	<circle class="st0" cx="245.1" cy="245.1" r="245.1"/>
</g>
<g id="smile">
	<path class="st1" d="M196.2,156.2c0,23.5-19,42.4-42.4,42.4s-42.4-19-42.4-42.4s19-42.4,42.4-42.4S196.2,132.7,196.2,156.2z"/>
	<path class="st1" d="M378.8,156.2c0,23.5-19,42.4-42.4,42.4c-23.5,0-42.4-19-42.4-42.4s19-42.4,42.4-42.4
		C359.9,113.7,378.8,132.7,378.8,156.2z"/>
	<path class="st1" d="M247.5,412.1c-81.5,0-129.7-53.8-129.7-130.2v-33.1h74.8v35.3c0,16.4,5.7,55.5,54.9,55.5
		c32.9,0,56.6-23.2,56.6-55.5v-35.3h74.8v33.1C378.8,356.1,326.8,412.1,247.5,412.1z"/>
</g>
</svg>
