<?xml version="1.0" encoding="utf-8"?>
<!-- Generator: Adobe Illustrator 19.2.1, SVG Export Plug-In . SVG Version: 6.00 Build 0)  -->
<svg version="1.1" id="Layer_1" xmlns="http://www.w3.org/2000/svg" xmlns:xlink="http://www.w3.org/1999/xlink" x="0px" y="0px"
	 viewBox="0 0 129.3 129.3" style="enable-background:new 0 0 129.3 129.3;" xml:space="preserve">
<style type="text/css">
	.st0{fill:#EC1C24;}
	.st1{fill:#FFFFFF;}
</style>
<circle class="st0" cx="64.6" cy="64.6" r="64.6"/>
<circle class="st1" cx="44.1" cy="54.1" r="5.5"/>
<circle class="st1" cx="67.9" cy="54.1" r="5.5"/>
<path class="st1" d="M33.6,49.3v8.7h-6.9v28.8h-9.8V49.1c0-10.1,6.1-17.7,17-16.4v9.2c-4.7-0.4-7.2,2.1-7.2,7.4H33.6z"/>
<path class="st1" d="M56.3,87.5c-10.6,0-16.9-7-16.9-17v-4.3h9.8v4.6c0,2.1,0.7,7.2,7.2,7.2c4.3,0,7.4-3,7.4-7.2v-4.6h9.8v4.3
	C73.5,80.2,66.7,87.5,56.3,87.5z"/>
<path class="st1" d="M96.6,47.6c10.6,0,16.9,7,16.9,17v22h-9.8V64.3c0-2.1-0.7-7.2-7.2-7.2c-4.3,0-7.4,3-7.4,7.2v22.3h-9.8v-22
	C79.5,54.9,86.3,47.6,96.6,47.6z"/>
</svg>
