<?xml version="1.0" encoding="utf-8"?>
<!-- Generator: Adobe Illustrator 19.2.1, SVG Export Plug-In . SVG Version: 6.00 Build 0)  -->
<svg version="1.1" id="Layer_1" xmlns="http://www.w3.org/2000/svg" xmlns:xlink="http://www.w3.org/1999/xlink" x="0px" y="0px"
	 viewBox="0 0 262.2 262.2" style="enable-background:new 0 0 262.2 262.2;" xml:space="preserve">
<style type="text/css">
	.st0{fill:#FFFFFF;}
</style>
<g id="g4652" transform="matrix(0.81249983,0,0,0.81249983,-86.06246,-186.24996)">
	<path id="path4450" class="st0" d="M246.6,292.2c-1.3,10.1-3.6,18.4-6.9,25c-3.3,6.6-7.7,12.2-13.2,16.9
		c-5.5,4.7-12.1,8.3-19.8,10.8v27.8h21.8v68.9c0,9,0.9,15.9,2.8,20.6c1.9,4.7,5.2,9.2,10.1,13.4c0.9,0.8,1.8,1.4,2.8,2.1
		c1.1,0.8,2.2,1.5,3.4,2.2c0.9,0.6,1.8,1.1,2.8,1.7c0.8,0.4,1.5,0.8,2.3,1.2c0.7,0.3,1.4,0.6,2,0.9c1.4,0.6,2.8,1.2,4.3,1.7
		c6.9,2.3,14.8,3.4,23.8,3.4c2,0,3.9-0.1,5.8-0.2c3.8-0.2,7.4-0.6,11-1.2c1.8-0.3,3.5-0.7,5.3-1.1c3.4-0.8,7-1.9,10.8-3.3
		c3.8-1.4,7.9-3.1,12.1-5.1V459v-12.1c-9.8,6.5-19.8,9.6-29.8,9.6c-5.6,0-10.5-1.3-14.9-3.9c-3.3-1.9-5.6-4.5-6.8-7.8
		c-1.2-3.2-1.8-10.5-1.8-21.9v-50.5h46.7v-30.8h-46.7v-49.7L246.6,292.2L246.6,292.2z"/>
</g>
</svg>
