<svg id="Layer_1" data-name="Layer 1" xmlns="http://www.w3.org/2000/svg" viewBox="0 0 490.2 490.2">
  <defs>
    <style>
      .cls-1 {
        fill: #b5e2bb;
        opacity: 0;
      }

      .cls-2 {
        fill: #fff;
      }
    </style>
  </defs>
  <title>u_move</title>
  <circle class="cls-1" cx="245.1" cy="245.1" r="245.1"/>
  <g id="smile">
    <path class="cls-2" d="M196.2,156.2a42.4,42.4,0,1,1-42.4-42.4A42.36,42.36,0,0,1,196.2,156.2Z"/>
    <path class="cls-2" d="M378.8,156.2a42.4,42.4,0,1,1-42.4-42.4A42.36,42.36,0,0,1,378.8,156.2Z"/>
    <path class="cls-2" d="M247.5,412.1c-81.5,0-129.7-53.8-129.7-130.2V248.8h74.8v35.3c0,16.4,5.7,55.5,54.9,55.5,32.9,0,56.6-23.2,56.6-55.5V248.8h74.8v33.1C378.8,356.1,326.8,412.1,247.5,412.1Z"/>
  </g>
</svg>
