<?xml version="1.0" encoding="utf-8"?>
<!-- Generator: Adobe Illustrator 19.2.1, SVG Export Plug-In . SVG Version: 6.00 Build 0)  -->
<svg version="1.1" xmlns="http://www.w3.org/2000/svg" xmlns:xlink="http://www.w3.org/1999/xlink" x="0px" y="0px"
	 viewBox="0 0 490 490.2" style="enable-background:new 0 0 490 490.2;" xml:space="preserve">
<style type="text/css">
	.st0{opacity:0;fill:#3FFFA6;}
	.st1{fill:#FFFFFF;}
</style>
<g id="Layer_2">
	<circle class="st0" cx="245.1" cy="245.1" r="245.1"/>
</g>
<g id="smile">
	<path class="st1" d="M196.2,156.2c0,23.5-19,42.4-42.4,42.4s-42.4-19-42.4-42.4s19-42.4,42.4-42.4S196.2,132.7,196.2,156.2z"/>
	<path class="st1" d="M378.8,156.2c0,23.5-19,42.4-42.4,42.4c-23.5,0-42.4-19-42.4-42.4s19-42.4,42.4-42.4
		C359.9,113.7,378.8,132.7,378.8,156.2z"/>
	<polygon class="st1" points="378.8,273.5 332.3,215.7 250.2,281.8 168.2,215.7 121.6,273.5 191.1,329.5 121.6,385.5 168.2,443.3 
		250.2,377.2 332.3,443.3 378.8,385.5 309.4,329.5 	"/>
</g>
</svg>
